<?xml version="1.0" encoding="utf-8"?>
<!-- Generator: Adobe Illustrator 18.0.0, SVG Export Plug-In . SVG Version: 6.00 Build 0)  -->
<!DOCTYPE svg PUBLIC "-//W3C//DTD SVG 1.1//EN" "http://www.w3.org/Graphics/SVG/1.1/DTD/svg11.dtd">
<svg version="1.1" id="Capa_1" xmlns="http://www.w3.org/2000/svg" xmlns:xlink="http://www.w3.org/1999/xlink" x="0px" y="0px"
	 viewBox="278.9 -21 429.1 581" enable-background="new 278.9 -21 429.1 581" xml:space="preserve">
<g>
	<path d="M633.5,153.2v140.1h9.6L628.7,318l-14.4-24.7h9.6V153.2h-9.6l14.4-24.7l14.4,24.7H633.5z M530.7,367.7v9.6H409.5v-9.6
		l-24.7,14.4l24.7,14.4v-9.6H531v9.6l24.7-14.4L531,367.7H530.7z M700.2,438.3c-1.1,1.5-2.1,2.9-3.3,4.2
		c-28.8,34.5-59,68.3-88.2,102.5H278.9V-15H708c0,6,0,11.9,0,17.8c0,30.4,0,60.9,0,91.3c0,43.2,0,86.5,0,129.7
		c0,41.1,0,82.2,0,123.4c0,15.1,0,30.3,0,45.3C708.2,409,710.3,424.4,700.2,438.3z M661.4,433.4h-55.8v62.1L661.4,433.4z M680.3,13
		H307v504.1h270.6v-97.9c0-7.8,6.3-14.1,14.1-14.1h88.7l0,0L680.3,13L680.3,13z M472.7,115.6c0.5,0,1.5,0.3,2,0.3h158.7
		c2.8,0,4.8-2,4.8-4.8s-2-4.8-4.8-4.8H474.9c-2.3,0-4.5,2-4.5,5.1c0,1.2,0.5,2.3,1.2,3L472.7,115.6z M363.4,209.1h-35.8l139.5-95.6
		l139.5,95.6h-38.3v121.2H634c2.8,0,4.8,2,4.8,4.8s-2,4.8-4.8,4.8h-65.7v46.5c0,2.8-2,4.8-4.8,4.8s-4.8-2-4.8-4.8v-46.5h-18.6v-93.2
		h-46.5v93.2H373v65.7c0,2.8-2,4.8-4.8,4.8s-4.8-2-4.8-4.8L363.4,209.1L363.4,209.1z M409.5,293.4h56.1v-46.6h-56.1V293.4z"/>
</g>
</svg>
