<?xml version="1.0" encoding="utf-8"?>
<!-- Generator: Adobe Illustrator 18.0.0, SVG Export Plug-In . SVG Version: 6.00 Build 0)  -->
<!DOCTYPE svg PUBLIC "-//W3C//DTD SVG 1.1//EN" "http://www.w3.org/Graphics/SVG/1.1/DTD/svg11.dtd">
<svg version="1.1" id="Слой_1" xmlns="http://www.w3.org/2000/svg" xmlns:xlink="http://www.w3.org/1999/xlink" x="0px" y="0px"
	 viewBox="473.3 0 422.3 560" enable-background="new 473.3 0 422.3 560" xml:space="preserve">
<g>
	<path d="M639.2,241.5c67.7,0,61.5,0,129.3,0c17.1,0,17.1-26.4,0-26.4c-67.7,0-61.5,0-129.3,0C622.3,215.1,622.3,241.5,639.2,241.5z
		"/>
	<path d="M639.2,320.5c67.7,0,61.5,0,129.3,0c17.1,0,17.1-26.4,0-26.4c-67.7,0-61.5,0-129.3,0C622.3,294.1,622.3,320.5,639.2,320.5z
		"/>
	<path d="M639.2,158c67.7,0,61.5,0,129.3,0c17.1,0,17.1-26.4,0-26.4c-67.7,0-61.5,0-129.3,0C622.3,131.6,622.3,158,639.2,158z"/>
	<path d="M591,124.9h-36.8c-1.3,0-2.4,0.8-2.4,1.9v37c0,0.9,1.1,1.7,2.4,1.7H591c1.3,0,2.4-0.8,2.4-1.7v-37
		C593.4,125.7,592.4,124.9,591,124.9z"/>
	<path d="M588.8,207.3H552c-1.3,0-2.4,0.8-2.4,1.9v37c0,0.9,1.1,1.9,2.4,1.9h36.8c1.3,0,2.4-0.8,2.4-1.9v-37
		C591.2,208.1,590.1,207.3,588.8,207.3z"/>
	<path d="M588.8,287.3H552c-1.3,0-2.4,0.8-2.4,1.9v37c0,0.9,1.1,1.7,2.4,1.7h36.8c1.3,0,2.4-0.8,2.4-1.7v-37
		C591.2,288.1,590.1,287.3,588.8,287.3z"/>
	<path d="M588.8,370.4H552c-1.3,0-2.4,0.8-2.4,1.9v37c0,0.9,1.1,1.9,2.4,1.9h36.8c1.3,0,2.4-0.8,2.4-1.9v-37
		C591.2,371.2,590.1,370.4,588.8,370.4z"/>
	<polygon points="858.8,401.8 832.4,383.4 773.6,467.4 743.7,437.1 720.8,459.7 777.9,517.4 	"/>
	<path d="M842.4,339.8V23.2h-57.3V0H536.9v23.2h-63.7v477.7h202.5V560h219.8V339.8H842.4z M508.2,466V58.2h28.6v23.2h248.3V58.2
		h22.2v281.6H675.7v37.8c-9.5,0-21,0-36.4,0c-17.1,0-17.1,26.4,0,26.4c15.5,0,26.9,0,36.4,0V466H508.2L508.2,466z M872.2,536.7
		H699.1V363.1h173.2V536.7L872.2,536.7z"/>
</g>
</svg>
