<?xml version="1.0" encoding="utf-8"?>
<!-- Generator: Adobe Illustrator 18.0.0, SVG Export Plug-In . SVG Version: 6.00 Build 0)  -->
<!DOCTYPE svg PUBLIC "-//W3C//DTD SVG 1.1//EN" "http://www.w3.org/Graphics/SVG/1.1/DTD/svg11.dtd">
<svg version="1.1" id="Слой_1" xmlns="http://www.w3.org/2000/svg" xmlns:xlink="http://www.w3.org/1999/xlink" x="0px" y="0px"
	 viewBox="313.8 87.5 341.3 388.4" enable-background="new 313.8 87.5 341.3 388.4" xml:space="preserve">
<g id="imagenes">
</g>
<g id="iconos">
	<path d="M585.7,342.6c11.9,2.1,25.5-9.9,31.1-28.2c2.7-8.9,3-17.7,1.3-24.9c-9.2,4.8-20.1,9.7-32.2,14.3c-4.9,1.9-10,3.7-15.4,5.4
		c-25.8,8.3-56.4,14.6-90.7,14.6c-33.5,0-63.4-6.7-88.8-15.7c-5.7-2-11.1-4.2-16.3-6.4c-11.3-4.8-21.6-9.9-30.4-15
		c-2.4,7.7-2.5,17.6,0.6,27.7c5.5,17.9,18.6,29.8,30.3,28.3c0.6,21.8,1.9,41.6,4.6,47.4c6.9,14.9,66.4,77.9,75.1,82.3
		s52.5,4.7,60.2,0c7.7-4.7,62-66.5,67.3-82.3C584.3,384,585.3,364.3,585.7,342.6z"/>
	<g>
		<path d="M638.2,218.8c-5.4,8.8-18.3,21.6-47,33.7c-0.6,0.2-6.7,2.9-8.6-2c-2.1-5.4,1.2-8.9,3.4-9.8c28.1-11.8,30.9-23.7,35-29.3
			c-4.6-17.8-16.6-73.1-88.5-95.6v103.1c0,14.5-11.8,26.3-26.3,26.3h-43.8c-14.5,0-26.3-11.8-26.3-26.3V115.3
			c-61.2,17.5-82.7,73-88.8,97c0.2,0.3,0.5,0.5,0.7,0.8c0,0.1,0.3,0.6,0.9,1.4c3.1,4.4,14.8,18.1,46.8,31.6c2.2,0.9,5,4.8,2.3,10.4
			c-3,6.3-7.7,4.4-8.2,4.2c-28.9-12.1-42.4-26.3-48.2-33.2h-27.9v18.6c0,0,15.4,13.2,41.6,27.3c6,3.2,12.5,6.4,19.5,9.6
			c2.4,1.1,4.8,2.1,7.3,3.1c26.9,11.1,60.2,20.1,97.9,20.1c37.7,0,84-13,110.9-22.9c2.7-1,5.3-2,7.8-3c8.7-3.4,14.5-7,21.5-10.5
			c23.4-11.6,34.8-22,34.8-22v-29.2H638.2z"/>
		<path d="M462.5,227.5h43.8c4.8,0,8.8-3.9,8.8-8.8V111.1V96.3c0-4.8-3.9-8.8-8.8-8.8h-43.8c-4.8,0-8.8,3.9-8.8,8.8v16.2v106.3
			C453.8,223.6,457.7,227.5,462.5,227.5z"/>
	</g>
</g>
</svg>
