<?xml version="1.0" encoding="utf-8"?>
<!-- Generator: Adobe Illustrator 18.0.0, SVG Export Plug-In . SVG Version: 6.00 Build 0)  -->
<!DOCTYPE svg PUBLIC "-//W3C//DTD SVG 1.1//EN" "http://www.w3.org/Graphics/SVG/1.1/DTD/svg11.dtd">
<svg version="1.1" id="Layer_1" xmlns="http://www.w3.org/2000/svg" xmlns:xlink="http://www.w3.org/1999/xlink" x="0px" y="0px"
	 viewBox="200 0 560 560" enable-background="new 200 0 560 560" xml:space="preserve">
<g>
	<path d="M747.2,485.3l-106-106c-17,23.9-37.9,44.8-61.9,61.9l106,106c17.1,17.1,44.8,17.1,61.9,0S764.3,502.4,747.2,485.3z"/>
	<path d="M655,227.5C655,101.9,553.1,0,427.5,0C301.8,0,200,101.9,200,227.5S301.8,455,427.5,455C553.1,455,655,353.1,655,227.5z
		 M427.5,402.5c-96.5,0-175-78.5-175-175s78.5-175,175-175c96.5,0,175,78.5,175,175S524,402.5,427.5,402.5z"/>
	<path d="M515,262.5h-17.5c-19.3,0-35-15.7-35-35v-2.2c15.9-18.7,26.3-47,26.3-67.8c0-29.4-6.7-60.5-42.8-68.1
		c-6.1-0.8-12.1-1.9-18.5-1.9c-6.3,0-12.3,1-18.5,1.9c-36.1,7.7-42.8,38.7-42.8,68.1c0,20.8,10.4,49.1,26.3,67.8v2.2
		c0,19.3-15.7,35-35,35H340c0,0-18.8,5.4-37,27.8c23.1,45.6,69.9,77.2,124.5,77.2c54.6,0,101.4-31.6,124.5-77.2
		C533.8,267.9,515,262.5,515,262.5z"/>
</g>
</svg>
