<?xml version="1.0" encoding="iso-8859-1"?>
<!-- Generator: Adobe Illustrator 16.0.4, SVG Export Plug-In . SVG Version: 6.00 Build 0)  -->
<!DOCTYPE svg PUBLIC "-//W3C//DTD SVG 1.1//EN" "http://www.w3.org/Graphics/SVG/1.1/DTD/svg11.dtd">
<svg version="1.1" id="Capa_1" xmlns="http://www.w3.org/2000/svg" xmlns:xlink="http://www.w3.org/1999/xlink" x="0px" y="0px"
	 viewBox="0 0 15 9.727" style="enable-background:new 0 0 15 9.727;" xml:space="preserve">
<path d="M3.742,1.717c0,0.949-0.77,1.717-1.715,1.717c-0.951,0-1.719-0.768-1.719-1.717
	C0.309,0.77,1.076,0,2.027,0C2.973,0,3.742,0.77,3.742,1.717z M11.258,1.717c0,0.949,0.77,1.717,1.715,1.717
	c0.951,0,1.721-0.768,1.721-1.717C14.693,0.77,13.924,0,12.973,0C12.027,0,11.258,0.77,11.258,1.717z M6.551,7.617
	c-0.039-0.365,0.102-0.703,0.34-0.949C5.438,6.391,4.842,5.682,4.324,5.041C4.072,4.727,3.832,4.428,3.514,4.217
	c-0.01-0.006-0.021-0.006-0.029-0.014C3.213,3.979,2.869,3.836,2.49,3.836H1.562C0.703,3.836,0,4.537,0,5.396v4.33h4.053V6.928
	c0.592,0.518,1.428,1.01,2.713,1.225C6.658,7.996,6.574,7.82,6.551,7.617z M13.439,3.836h-0.93c-0.377,0-0.723,0.143-0.992,0.367
	c-0.01,0.008-0.021,0.008-0.029,0.014c-0.318,0.211-0.559,0.508-0.812,0.824C10.107,5.744,9.463,6.547,7.66,6.746
	C7.252,6.793,6.959,7.16,7.004,7.568C7.045,7.949,7.367,8.23,7.742,8.23c0.027,0,0.055-0.002,0.084-0.004
	c1.527-0.17,2.473-0.713,3.123-1.289v2.789H15v-4.33C15,4.537,14.297,3.836,13.439,3.836z"/>
<g>
</g>
<g>
</g>
<g>
</g>
<g>
</g>
<g>
</g>
<g>
</g>
<g>
</g>
<g>
</g>
<g>
</g>
<g>
</g>
<g>
</g>
<g>
</g>
<g>
</g>
<g>
</g>
<g>
</g>
</svg>
