<?xml version="1.0" encoding="utf-8"?>
<!-- Generator: Adobe Illustrator 18.0.0, SVG Export Plug-In . SVG Version: 6.00 Build 0)  -->
<!DOCTYPE svg PUBLIC "-//W3C//DTD SVG 1.1//EN" "http://www.w3.org/Graphics/SVG/1.1/DTD/svg11.dtd">
<svg version="1.1" id="Слой_1" xmlns:svg="http://www.w3.org/2000/svg"
	 xmlns="http://www.w3.org/2000/svg" xmlns:xlink="http://www.w3.org/1999/xlink" x="0px" y="0px" 
	 viewBox="0 0 429.4 560" enable-background="new 0 0 429.4 560" xml:space="preserve">
<g>
	<title>Layer 1</title>
	<g id="svg_1">
		<path id="svg_2" d="M354.6,168.2v140.1h9.6L349.8,333l-14.4-24.7h9.6V168.2h-9.6l14.4-24.7l14.4,24.7H354.6z M251.8,382.7v9.6
			H130.6v-9.6l-24.7,14.4l24.7,14.4v-9.6h121.5v9.6l24.7-14.4l-24.7-14.4H251.8z M421.3,453.3c-1.1,1.5-2.1,2.9-3.3,4.2
			c-28.8,34.5-59,68.3-88.2,102.5H0V0h429.1c0,6,0,11.9,0,17.8c0,30.4,0,60.9,0,91.3c0,43.2,0,86.5,0,129.7c0,41.1,0,82.2,0,123.4
			c0,15.1,0,30.3,0,45.3C429.3,424,431.4,439.4,421.3,453.3z M382.5,448.4h-55.8v62.1L382.5,448.4z M401.4,28H28.1v504.1h270.6
			v-97.9c0-7.8,6.3-14.1,14.1-14.1h88.7l0,0L401.4,28L401.4,28z M193.8,130.6c0.5,0,1.5,0.3,2,0.3h158.7c2.8,0,4.8-2,4.8-4.8
			s-2-4.8-4.8-4.8H196c-2.3,0-4.5,2-4.5,5.1c0,1.2,0.5,2.3,1.2,3L193.8,130.6z M84.5,224.1H48.7l139.5-95.6l139.5,95.6h-38.3v121.2
			h65.7c2.8,0,4.8,2,4.8,4.8s-2,4.8-4.8,4.8h-65.7v46.5c0,2.8-2,4.8-4.8,4.8s-4.8-2-4.8-4.8v-46.5h-18.6v-93.2h-46.5v93.2H94.1v65.7
			c0,2.8-2,4.8-4.8,4.8s-4.8-2-4.8-4.8V224.1L84.5,224.1z M130.6,308.4h56.1v-46.6h-56.1V308.4z"/>
	</g>
</g>
</svg>
