<?xml version="1.0" encoding="utf-8"?>
<!-- Generator: Adobe Illustrator 18.0.0, SVG Export Plug-In . SVG Version: 6.00 Build 0)  -->
<!DOCTYPE svg PUBLIC "-//W3C//DTD SVG 1.1//EN" "http://www.w3.org/Graphics/SVG/1.1/DTD/svg11.dtd">
<svg version="1.1" id="Capa_1" xmlns="http://www.w3.org/2000/svg" xmlns:xlink="http://www.w3.org/1999/xlink" x="0px" y="0px"
	 viewBox="401 -3 560 560" enable-background="new 401 -3 560 560" xml:space="preserve">
<g>

	<g>
		<path d="M845.5-2h-329c-60.3,0-109.7,49.4-109.7,109.7v329c0,60.3,49.4,109.7,109.7,109.7h329
			c60.3,0,109.7-49.4,109.7-109.7v-329C955.1,47.3,905.8-2,845.5-2z M794.4,280.4v59.1c0,4.3-3.9,7.9-8.8,7.9H655.8
			c-4.8,0-8.7-3.5-8.7-7.9v-59.1c0-4.3,4-7.8,8.7-7.8h129.7C790.5,272.6,794.4,276.1,794.4,280.4z M700.8,155.6
			c4.3,3,5.3,8.9,2.3,13.2l-29.6,42.5c-3,4.3-9,5.4-13.2,2.3l-8.9-6.1l40.2-58.2L700.8,155.6z M509,91.6c3.3-1.2,7-2.3,8.9-2.8
			c33.8-9.2,72.4-3.4,113.3,25.2c2.9,2,6,4.1,8.9,6.2c14.2,32.2,41.3,28.9,41.3,28.9c-11.6,16.5-23.2,33.1-34.8,49.7
			c-0.3-1.2-0.8-2.3-1.4-3.5c-0.3-0.6-0.6-1.2-1-1.9c-0.5-0.8-1-1.6-1.6-2.3c-0.3-0.4-0.5-0.8-0.9-1.2c-0.7-0.9-1.6-1.7-2.4-2.3
			c-1.7-1.5-3.7-2.5-6.1-3c-15.6-3.2-28.4,8.9-34.4,16c-1.3,1.7-5.2,6.9-4.1,5.3c0.2-0.3-40.6-28.5-40.6-28.6
			c-0.1-0.2,9.6-13.7,14.4-20.5c18-25.6-3.6-50.5-30.9-55.8c-6.4-1.2-12.6-0.8-19-0.5c-1.6,0.1-4.8,0.6-7.9,1.2
			C504.1,102.7,503.1,93.7,509,91.6z M506.5,323.1c-12.6-1.4-25.4-9.7-31-21.9l78.4-112.1L585,211L506.5,323.1z M702.2,451.5
			c0,4.3-3.9,7.8-8.7,7.8H563.8c-4.8,0-8.7-3.5-8.7-7.8v-59.1c0-4.4,3.9-7.8,8.7-7.8h129.7c4.8,0,8.7,3.5,8.7,7.8L702.2,451.5
			L702.2,451.5z M886.7,451.5c0,4.3-3.9,7.8-8.8,7.8H748.2c-4.9,0-8.8-3.5-8.8-7.8v-59.1c0-4.3,3.9-7.8,8.8-7.8h129.7
			c4.9,0,8.8,3.5,8.8,7.8L886.7,451.5L886.7,451.5z"/>
	</g>
</g>
</svg>
