<?xml version="1.0" encoding="utf-8"?>
<!-- Generator: Adobe Illustrator 16.0.4, SVG Export Plug-In . SVG Version: 6.00 Build 0)  -->
<!DOCTYPE svg PUBLIC "-//W3C//DTD SVG 1.1//EN" "http://www.w3.org/Graphics/SVG/1.1/DTD/svg11.dtd">
<svg version="1.1" id="Layer_1" xmlns="http://www.w3.org/2000/svg" xmlns:xlink="http://www.w3.org/1999/xlink" x="0px" y="0px"
	  viewBox="0 0 800 800" enable-background="new 0 0 800 800" xml:space="preserve">
<path d="M171.4,392l-28.6-34.7L400,145.8l257.2,211.5L628.6,392L400,204L171.4,392z M670.5,511.4h-80v64h-142l-7.5,0.203
	c-10.101,17.199-41,69.6-41,69.6s-30.9-52.4-41-69.6L209.5,575.4v-64h-80l-104,142.8H67c1.9,0,3.8,0.1,5.7,0.1
	c92.1,0,184.1,0,276.2,0c4.9,0,9.8,0,14.6,0h85c0.9,0,1.7,0,2.6,0c92.101,0,184.101,0.101,276.2,0c1.9,0,3.8,0,5.7-0.1h41.5
	L670.5,511.4z M422,542.9V509h-0.399H415.5h-0.399c-5,0-10,0-15,0c-0.101,0-0.3,0-0.4,0c-5,0-10,0-15,0c-0.1,0-0.3,0-0.4,0h-6.1
	h-0.4v33.9v0.5v6h-21.1h-0.4c15.301,26,43.513,73.996,43.617,74.1c0.101-0.1,28.483-48.1,43.783-74.1h-0.6H422v-6V542.9z
	 M454.134,553.1l9.5-16h-30v-40.4h-67.1v40.4h1.366l-31.366,0.1l10.766,15.9H234.1L234,384.4l166-137l166,137.4V553L454.134,553.1z
	 M396.083,424.75h-61.5v57.5h61.5V424.75z M396.083,359.75h-61.5v57.5h61.5V359.75z M404.083,417.25h61.5v-57.5h-61.5V417.25z
	 M465.583,482.25v-57.5h-61.5v57.5H465.583z"/>
</svg>
