<?xml version="1.0" encoding="utf-8"?>
<!-- Generator: Adobe Illustrator 16.0.0, SVG Export Plug-In . SVG Version: 6.00 Build 0)  -->
<!DOCTYPE svg PUBLIC "-//W3C//DTD SVG 1.1//EN" "http://www.w3.org/Graphics/SVG/1.1/DTD/svg11.dtd">
<svg version="1.1" id="Capa_1" xmlns="http://www.w3.org/2000/svg" xmlns:xlink="http://www.w3.org/1999/xlink" x="0px" y="0px"
	  viewBox="0 0 64 64" enable-background="new 0 0 64 64" xml:space="preserve">
<g>
	<path d="M21.254,10.063c2.972,0.617,6.86,0.9,10.746,0.859c3.886,0.041,7.773-0.242,10.744-0.859l14.697-3.443l-25.49-6.118v0.002
		L6.558,6.621L21.254,10.063z"/>
	<polygon points="18.319,28.5 17.943,21.326 13.833,19.794 14.202,26.755 	"/>
	<polygon points="17.368,10.404 13.276,9.353 13.748,18.198 17.859,19.731 	"/>
	<polygon points="13.816,33.299 13.538,28.066 8.008,25.723 8.431,31.018 	"/>
	<polygon points="7.338,17.373 7.875,24.075 13.451,26.437 13.083,19.515 	"/>
	<polygon points="18.679,35.36 18.405,30.13 14.289,28.386 14.568,33.618 	"/>
	<polygon points="12.998,17.919 12.533,9.163 6.558,7.629 7.209,15.76 	"/>
	<path d="M21.511,29.852c0.568,0.152,1.177,0.286,1.807,0.409l-0.185-7.304c-0.718-0.139-1.412-0.29-2.053-0.463l-2.388-0.889
		l0.378,7.213L21.511,29.852z"/>
	<path d="M28.979,30.954l-0.144-7.312c-1.735-0.105-3.416-0.287-4.964-0.55l0.185,7.308C25.586,30.665,27.255,30.851,28.979,30.954z
		"/>
	<path d="M23.585,11.833l0.247,9.776c1.536,0.275,3.225,0.465,4.973,0.575l-0.196-9.897C26.791,12.198,25.091,12.043,23.585,11.833z
		"/>
	<path d="M23.095,21.462l-0.245-9.736c-0.355-0.055-0.7-0.115-1.028-0.179l-3.708-0.952l0.494,9.415l2.92,1.089
		C22.021,21.233,22.551,21.35,23.095,21.462z"/>
	<path d="M29.11,37.671l-0.103-5.255c-1.714-0.099-3.375-0.276-4.915-0.527l0.132,5.246C25.75,37.391,27.403,37.572,29.11,37.671z"
		/>
	<path d="M21.51,36.562c0.618,0.166,1.285,0.311,1.977,0.442l-0.132-5.24c-0.802-0.149-1.568-0.315-2.276-0.507l-0.094-0.034
		l-1.829-0.775l0.274,5.232L21.51,36.562z"/>
	<path d="M34.656,12.321c-0.864,0.034-1.758,0.047-2.656,0.051c-0.9-0.004-1.792-0.018-2.657-0.051l0.196,9.902
		c0.798,0.039,4.123,0.039,4.92,0L34.656,12.321z"/>
	<path d="M34.432,23.682c-0.805,0.038-1.618,0.055-2.432,0.059c-0.814-0.004-1.627-0.021-2.433-0.059l0.145,7.309
		c0.896,0.195,3.843,0.163,4.575,0L34.432,23.682z"/>
	<polygon points="50.166,19.794 46.057,21.326 45.681,28.5 49.797,26.755 	"/>
	<polygon points="50.723,9.353 46.63,10.404 46.141,19.731 50.251,18.198 	"/>
	<polygon points="55.992,25.723 50.461,28.066 50.183,33.299 55.568,31.018 	"/>
	<polygon points="56.661,17.373 50.917,19.515 50.548,26.437 56.125,24.075 	"/>
	<polygon points="49.71,28.386 45.595,30.13 45.32,35.36 49.432,33.618 	"/>
	<polygon points="57.441,7.629 51.467,9.163 51.001,17.919 56.79,15.76 	"/>
	<path d="M45.308,21.604l-2.387,0.889c-0.643,0.174-1.337,0.325-2.055,0.463l-0.185,7.304c0.631-0.124,1.238-0.257,1.807-0.409
		l2.441-1.035L45.308,21.604z"/>
	<path d="M40.13,23.092c-1.55,0.263-3.229,0.445-4.965,0.55l-0.146,7.312c1.725-0.103,3.394-0.289,4.925-0.554L40.13,23.092z"/>
	<path d="M40.414,11.833c-1.506,0.21-3.207,0.365-5.023,0.454l-0.196,9.897c1.747-0.11,3.438-0.299,4.973-0.575L40.414,11.833z"/>
	<path d="M45.886,10.595l-3.708,0.952c-0.328,0.064-0.673,0.124-1.029,0.179l-0.244,9.736c0.543-0.112,1.073-0.229,1.567-0.362
		l2.92-1.089L45.886,10.595z"/>
	<path d="M34.889,37.671c1.707-0.099,3.36-0.28,4.886-0.536l0.132-5.246c-1.54,0.251-3.2,0.428-4.915,0.527L34.889,37.671z"/>
	<path d="M34.154,37.703l0.104-5.251c-0.748,0.032-1.503,0.049-2.258,0.054c-0.756-0.005-1.51-0.021-2.259-0.054l0.104,5.251
		C30.739,37.865,33.358,37.849,34.154,37.703z"/>
	<path d="M40.645,31.764l-0.133,5.24c0.693-0.132,1.359-0.276,1.977-0.442l2.08-0.882l0.275-5.232l-1.829,0.775l-0.094,0.034
		C42.213,31.448,41.445,31.615,40.645,31.764z"/>
	<path d="M60.811,41.216l-5.789-3.384l0.414-5.164l-12.421,5.263l-0.094,0.032c-3.006,0.815-6.966,1.232-10.921,1.253
		c-3.956-0.021-7.916-0.438-10.922-1.253l-0.094-0.032l-12.42-5.263l0.414,5.164l-5.789,3.384c-0.79,0.461-1.283,1.304-1.297,2.218
		c-0.014,0.916,0.45,1.773,1.225,2.26l28.329,17.813c0.375,0.239,0.719,0.255,1.11,0l28.328-17.813
		c0.775-0.486,1.239-1.344,1.226-2.26C62.094,42.52,61.601,41.677,60.811,41.216z M32,57.669L9.562,43.56l2.208-1.291l8.933,5.783
		l0.153,0.083c1.888,0.834,3.934,1.44,6.084,1.804c0,0,0.287,0.048,0.641,0.109c0.354,0.061,0.642-0.36,0.642-0.939v-7.114h7.555
		v7.114c0,0.579,0.286,1,0.641,0.939c0.354-0.062,0.641-0.109,0.641-0.109c2.15-0.363,4.196-0.97,6.085-1.804l0.152-0.083
		l8.933-5.783l2.209,1.291L32,57.669z"/>
</g>
</svg>
