<?xml version="1.0" encoding="utf-8"?>
<!-- Generator: Adobe Illustrator 18.0.0, SVG Export Plug-In . SVG Version: 6.00 Build 0)  -->
<!DOCTYPE svg PUBLIC "-//W3C//DTD SVG 1.1//EN" "http://www.w3.org/Graphics/SVG/1.1/DTD/svg11.dtd">
<svg version="1.1" id="Layer_1" xmlns="http://www.w3.org/2000/svg" xmlns:xlink="http://www.w3.org/1999/xlink" x="0px" y="0px"
	 viewBox="236.7 11.5 486.6 537" enable-background="new 236.7 11.5 486.6 537" xml:space="preserve">
<g>
	<rect x="324.4" y="98.6" fill="#FBEE53" width="217.8" height="32.2"/>
	<rect x="324.4" y="186.1" fill="#FBEE53" width="217.8" height="32.2"/>
	<path fill="#FBEE53" d="M562,460.7c1.4,3,2.2,6.3,2.3,9.6c0.3,5.5-2.2,4.1-6,2.2c-3.5-1.8-7.4-2.3-11.2-3.1c-3.6-0.8-5.1-3.3-7-6.3
		c-2.6-4.1-7.8-3.7-10.5,0c-2,2.7-4.4,7.8-7.6,9.9c0.9-6.3,1.3-12.6,2-18.8c6.9-2.9,13-8.6,16.6-14.3c6.2-9.6,5.2-23.6-1.9-32.5
		c-7.8-9.8-16.9,2.5-19.6,9.3c-3.5,8.9-5.1,17.6-6.1,26.3c-0.3-0.1-0.7-0.3-1-0.5c-6.4-3.6-8.3-14.8-9.4-21.3
		c-1.4-7.7-13.1-4.4-11.7,3.2c2,10.8,5.9,23.4,16.1,29.2c1.6,0.9,3.2,1.5,4.8,1.8c-0.4,3.9-0.7,7.9-1.3,11.9c-1.5-2-3-4.1-4.4-5.3
		c-8.5-7.4-20-3.2-26,5.1c-9,12.3-1.5,38.5,14.6,41c10.9,1.7,18.8-7.8,22.6-17c0.7-1.6,1.3-3.3,1.8-5c2.4,0.1,4.9-0.4,7.1-1.6
		c3.7-2,6.4-5.1,8.9-8.4c2.1,2,4.6,3.6,7.7,4.5c3,0.9,6.4,0.9,9.3,2.1c3.4,1.4,6.5,3.9,10.3,3.9c17.4,0,15.2-21.6,10-32.3
		C569.1,447.5,558.6,453.6,562,460.7z M529.3,424.5c0.5-1.9,1.2-3.9,2-5.7c0.2,0.8,0.4,1.5,0.6,2.3c0.7,2.7,0.8,5.1,0.2,7.8
		c-0.6,3.1-2.9,6.8-6,9.8C527,433.8,528,429.1,529.3,424.5z M493.8,494.5c-5-4.7-6.5-13.2-4.3-19.4c0.7-2.2,4.7-5.8,7.2-4.7
		c4.5,2,7.3,8,11,11.4C506.3,487.4,500.6,500.9,493.8,494.5z"/>
	<path fill="#FBEE53" d="M399.3,455.9l-6.4-6.4c-0.1-0.6-0.2-1.2-0.3-1.8l4.1-8.1l-8.1-4.1c-0.3-0.6-0.6-1.1-0.9-1.7l1.4-8.9l-9-1.4
		c-0.4-0.4-0.9-0.9-1.3-1.3l-1.4-9l-8.9,1.4c-0.6-0.3-1.1-0.6-1.7-0.9l-4.1-8l-8.1,4.1c-0.6-0.1-1.2-0.2-1.8-0.3l-6.4-6.4l-6.4,6.4
		c-0.6,0.1-1.2,0.2-1.8,0.3l-8.1-4.1l-4.1,8c-0.6,0.3-1.1,0.6-1.7,0.9l-8.9-1.4l-1.4,9c-0.4,0.4-0.9,0.9-1.3,1.3l-9,1.4l1.4,8.9
		c-0.3,0.6-0.6,1.1-0.9,1.7l-8.1,4.1l4.1,8.1c-0.1,0.6-0.2,1.2-0.3,1.8l-6.4,6.4l6.4,6.4c0.1,0.6,0.2,1.2,0.3,1.8l-4.1,8.1l8.1,4.1
		c0.3,0.6,0.6,1.1,0.9,1.7l-1.4,8.9l9,1.4c0.4,0.4,0.9,0.9,1.3,1.3l1.4,9l8.9-1.4c0.5,0.3,1.1,0.6,1.7,0.9l4.1,8l8.1-4.1
		c0.6,0.1,1.2,0.2,1.8,0.3l6.4,6.4l6.4-6.4c0.6-0.1,1.2-0.2,1.8-0.3l8.1,4.1l4.1-8c0.6-0.3,1.1-0.6,1.7-0.9l8.9,1.4l1.4-9
		c0.4-0.4,0.9-0.9,1.3-1.3l9-1.4l-1.4-8.9c0.3-0.5,0.6-1.1,0.9-1.7l8-4.1l-4.1-8.1c0.1-0.6,0.2-1.2,0.3-1.8L399.3,455.9z
		 M346.5,485.1c-16.1,0-29.2-13-29.2-29.1c0-16.1,13.1-29.1,29.2-29.1s29.2,13,29.2,29.1C375.7,472,362.6,485.1,346.5,485.1z"/>
	<path fill="#FBEE53" d="M718.4,220.1l-35.8-35.8c-6.2-6.2-17.3-6.2-23.5,0l-31.9,31.7V11.5H236.7v537h390.5V335.2l91.3-91.5
		C724.9,237.2,724.9,226.6,718.4,220.1z M600.5,521.9H263.3V38.1h337.2v204.6L542.2,301v-27.5H324.4v32.2h213l-21.1,21.1
		c-1.4,1.4-2.4,3-3.2,4.8L497,385.1c-1.7,5.9-0.1,12.2,4.2,16.5c3.2,3.2,7.4,4.9,11.8,4.9c1.6,0,3.2-0.2,4.7-0.7l51.2-15.2
		c2.6-0.8,5.1-2.2,7-4.2l24.7-24.6L600.5,521.9L600.5,521.9z M564,374.5l-51.2,15.2l15.2-51.2l114.9-115l36,36L564,374.5z
		 M685.2,253.2l-35.8-35.8l21.4-21.4l35.8,35.8L685.2,253.2z"/>
</g>
</svg>
