<?xml version="1.0" encoding="utf-8"?>
<!-- Generator: Adobe Illustrator 18.0.0, SVG Export Plug-In . SVG Version: 6.00 Build 0)  -->
<!DOCTYPE svg PUBLIC "-//W3C//DTD SVG 1.1//EN" "http://www.w3.org/Graphics/SVG/1.1/DTD/svg11.dtd">
<svg version="1.1" id="Слой_1" xmlns="http://www.w3.org/2000/svg" xmlns:xlink="http://www.w3.org/1999/xlink" x="0px" y="0px"
	 viewBox="0 0 100.1 100.1" enable-background="new 0 0 100.1 100.1" xml:space="preserve">
<g>
	<path fill="none" d="M72.2,70.5c-4.5-2.3-8-6.8-8.9-8.1c-0.9,1-1.8,2.1-2.7,3.2c-1.2,1.4-2.2,2.2-2.9,2.2c-0.3,0-0.7-0.1-1.1-0.2
		c-0.4-0.2-0.8-0.3-1-0.4c-0.3-0.1-0.6-0.3-1.1-0.6c-0.5-0.3-0.8-0.5-0.9-0.6c-4.3-2.4-8-5.1-11.1-8.2c-3.1-3.1-5.9-6.8-8.2-11.1
		c-0.1-0.1-0.3-0.4-0.6-0.9c-0.3-0.5-0.5-0.8-0.6-1.1c-0.1-0.3-0.3-0.6-0.4-1c-0.2-0.4-0.2-0.8-0.2-1.1c0-0.6,0.4-1.3,1.3-2.2
		c0.9-0.9,1.9-1.7,2.9-2.5c1.1-0.8,2-1.6,2.9-2.6c0.9-0.9,1.3-1.7,1.3-2.4c0-0.4-0.1-0.9-0.3-1.4c-0.2-0.5-0.5-1-1-1.6
		c-0.4-0.6-0.7-1-0.8-1.2c-0.1-0.3-0.5-0.9-1-1.9c-0.5-1-1.1-2-1.6-3c-0.6-1-1.1-2-1.7-3.1c-0.6-1.1-1.1-1.9-1.6-2.6
		c-0.5-0.7-0.9-1.1-1.1-1.2s-0.6-0.1-1-0.1c-2.1,0-4.3,0.5-6.6,1.4c-2,0.9-3.7,3-5.2,6.2c-1.5,3.2-2.2,6-2.2,8.5
		c0,0.7,0.1,1.4,0.2,2.2c0.1,0.8,0.2,1.4,0.3,2c0.1,0.5,0.3,1.3,0.6,2.2c0.3,0.9,0.5,1.5,0.6,1.9c0.2,0.4,0.4,1.1,0.8,2.1
		c0.4,1,0.6,1.7,0.7,2c2.6,7.1,7.3,14.1,14.1,20.9c6.8,6.8,13.8,11.5,20.9,14.1c0.3,0.1,0.9,0.3,2,0.7c1,0.4,1.8,0.7,2.2,0.8
		c0.4,0.2,1,0.4,1.9,0.7c0.9,0.3,1.6,0.5,2.2,0.6c0.5,0.1,1.2,0.2,2,0.3c0.8,0.1,1.5,0.2,2.2,0.2c2.5,0,5.3-0.7,8.5-2.2
		C79,79.7,81.1,78,82,76c0.5-1.3,0.9-2.5,1.1-3.7C81.8,72.4,76.4,72.6,72.2,70.5z"/>
	<path fill="none" d="M80.8,66.4c-1.5-0.9-3.5-2-5.8-3.2l-3.5-1.9c-0.2-0.1-0.6-0.4-1.2-0.8c-0.6-0.4-1.2-0.8-1.6-1
		c-0.5-0.2-0.9-0.3-1.4-0.3c-0.8,0-1.8,0.7-3.1,2.1c-0.3,0.3-0.6,0.6-0.8,1l1.1,0.6c0.4,0.4,1,0.9,1.6,1.5c1.6,1.5,3.8,3.3,6.2,4.7
		l0.4,0.2l0.5,0.2c0.4,0.2,0.6,0.3,0.9,0.4c0.6,0.2,1.3,0.5,1.9,0.6c0.6,0.2,1.3,0.3,1.9,0.5c0.6,0.1,1.2,0.2,1.7,0.3
		c1,0.2,1.8,0.3,2.4,0.3l1,0.5c0.2-0.9,0.3-1.8,0.3-2.7c0-0.5,0-0.8-0.1-1C83.2,68,82.3,67.4,80.8,66.4z"/>
	<path fill="#FFFFFF" d="M94.6,5.5C90.9,1.8,86.5,0,81.3,0H18.8C13.6,0,9.2,1.8,5.5,5.5S0,13.6,0,18.8v62.6c0,5.2,1.8,9.6,5.5,13.3
		c3.7,3.7,8.1,5.5,13.3,5.5h62.6c5.2,0,9.6-1.8,13.3-5.5c3.7-3.7,5.5-8.1,5.5-13.3V18.8C100.1,13.6,98.3,9.2,94.6,5.5z M30.7,16.7
		c0.5,0,0.8,0,1,0.1c0.2,0.1,0.6,0.5,1.1,1.2c0.5,0.7,1,1.6,1.6,2.6c0.6,1.1,1.2,2.1,1.7,3.1c0.6,1,1.1,2,1.6,3c0.5,1,0.9,1.6,1,1.9
		c0.1,0.2,0.4,0.6,0.8,1.2c0.4,0.6,0.8,1.2,1,1.6c0.2,0.5,0.3,0.9,0.3,1.4c0,0.7-0.4,1.4-1.3,2.4c-0.6,0.6-1.1,1.1-1.8,1.6
		c0,0-0.3-0.3-0.8-0.7c0,0-0.1-0.1-0.1-0.1l0.6,1.1c0,0,0,0,0,0L36.9,36c-0.2-0.2-0.5-0.4-0.7-0.7c-0.3-0.3-0.7-0.7-1.1-1.1
		c-0.4-0.4-0.8-0.8-1.3-1.3c-0.4-0.5-0.9-1-1.3-1.5c-0.4-0.5-0.9-1.1-1.2-1.7L31,29.4l-0.3-0.5c-0.1-0.1-0.2-0.4-0.3-0.4L30.2,28
		c-1.2-2.6-2-5.4-2.5-7.6c-0.2-0.9-0.4-1.6-0.5-2.2c0-0.2-0.1-0.3-0.1-0.5c0-0.2-0.1-0.3-0.1-0.5C28.2,16.9,29.5,16.7,30.7,16.7z
		 M82,76c-0.9,2-3,3.7-6.2,5.2c-3.2,1.5-6,2.2-8.5,2.2c-0.7,0-1.4,0-2.2-0.2c-0.8-0.1-1.4-0.2-2-0.3c-0.5-0.1-1.3-0.3-2.2-0.6
		c-0.9-0.3-1.5-0.5-1.9-0.6c-0.4-0.2-1.1-0.4-2.1-0.8c-1.1-0.4-1.7-0.6-2-0.7c-7.1-2.6-14.1-7.3-20.9-14.1
		c-6.8-6.8-11.5-13.8-14.1-20.9c-0.1-0.3-0.3-0.9-0.7-2c-0.4-1-0.7-1.8-0.8-2.2c-0.1-0.4-0.4-1-0.6-1.9c-0.3-0.9-0.5-1.6-0.6-2.2
		c-0.1-0.5-0.2-1.2-0.3-2c-0.1-0.8-0.2-1.5-0.2-2.2c0-2.5,0.8-5.3,2.2-8.5c1.5-3.2,3.2-5.3,5.2-6.2c0.5-0.2,1.1-0.4,1.6-0.6
		c-0.1,0.7-0.2,1.8-0.1,3.1c0,1.2,0.2,2.6,0.5,4.1c0.2,0.7,0.4,1.5,0.6,2.3c0.1,0.4,0.3,0.8,0.4,1.2c0.2,0.4,0.3,0.8,0.5,1.1
		l0.3,0.6c0.2,0.3,0.2,0.3,0.3,0.5l0.3,0.5l0.4,0.5c0.5,0.7,1,1.3,1.6,1.8c1.1,1.1,2.2,2,3.2,2.6c1,0.7,1.9,1.1,2.5,1.4
		c0.3,0.1,0.5,0.2,0.6,0.3c-0.1,0.1-0.2,0.2-0.3,0.2c-1.1,0.8-2,1.6-2.9,2.5c-0.9,0.9-1.3,1.6-1.3,2.2c0,0.3,0.1,0.7,0.2,1.1
		c0.2,0.4,0.3,0.8,0.4,1c0.1,0.3,0.3,0.6,0.6,1.1c0.3,0.5,0.5,0.8,0.6,0.9c2.4,4.3,5.1,8,8.3,11.1c3.1,3.1,6.8,5.9,11.1,8.3
		c0.1,0.1,0.4,0.3,0.9,0.5c0.5,0.3,0.9,0.5,1.1,0.6c0.3,0.1,0.6,0.3,1,0.4c0.4,0.2,0.8,0.2,1.1,0.2c0.7,0,1.7-0.7,2.9-2.1
		c0.8-0.9,1.6-1.8,2.3-2.7c0.3,0.6,0.8,1.6,1.7,2.8c0.7,0.9,1.6,2,2.7,3c0.5,0.5,1.1,1,1.8,1.5c0.3,0.2,0.6,0.5,1,0.7
		c0.3,0.2,0.7,0.4,1.1,0.6l0.6,0.3l0.5,0.2c0.3,0.2,0.7,0.3,1.1,0.4c0.8,0.3,1.5,0.4,2.3,0.6c0.7,0.1,1.5,0.2,2.1,0.3
		c0.7,0,1.3,0,1.9,0c1.2,0,2.1-0.2,2.8-0.3c0.2,0,0.4-0.1,0.6-0.1C82.8,73.9,82.4,74.9,82,76z M83.2,71.7c-0.2,0-0.4-0.1-0.8-0.1
		l-0.2,0c-0.6-0.1-1.4-0.2-2.4-0.3c-0.5-0.1-1.1-0.2-1.7-0.3c-0.6-0.1-1.2-0.3-1.9-0.5c-0.6-0.2-1.3-0.4-1.9-0.6
		c-0.3-0.1-0.6-0.2-0.9-0.4l-0.5-0.2L72.4,69c-2.4-1.3-4.6-3.2-6.2-4.7c-0.6-0.6-1.2-1.1-1.6-1.5l0,0c-0.1-0.1-0.3-0.2-0.4-0.3
		c-0.2-0.2-0.4-0.4-0.5-0.5c0.2-0.2,0.4-0.5,0.6-0.7c1.3-1.4,2.3-2.1,3.1-2.1c0.4,0,0.9,0.1,1.4,0.3c0.5,0.2,1,0.5,1.6,1
		c0.6,0.4,1,0.7,1.2,0.9l3.5,1.9c2.3,1.2,4.2,2.3,5.8,3.2c1.5,0.9,2.4,1.6,2.5,1.9c0.1,0.2,0.1,0.6,0.1,1
		C83.4,70.2,83.3,71,83.2,71.7z"/>
</g>
</svg>
