<?xml version="1.0" encoding="utf-8"?>
<!-- Generator: Adobe Illustrator 18.0.0, SVG Export Plug-In . SVG Version: 6.00 Build 0)  -->
<!DOCTYPE svg PUBLIC "-//W3C//DTD SVG 1.1//EN" "http://www.w3.org/Graphics/SVG/1.1/DTD/svg11.dtd">
<svg version="1.1" id="Слой_1" xmlns="http://www.w3.org/2000/svg" xmlns:xlink="http://www.w3.org/1999/xlink" x="0px" y="0px"
	 viewBox="0 0 228.9 128.3" enable-background="new 0 0 228.9 128.3" xml:space="preserve">
<g>
	<g>
		<path d="M40,41.8H5c-2.8,0-5,2.2-5,5v35c0,2.8,2.2,5,5,5h35c2.8,0,5-2.2,5-5v-35C45,44,42.8,41.8,40,41.8z M41.5,78.3
			c0,2.8-2.2,5-5,5h-28c-2.8,0-5-2.2-5-5v-28c0-2.8,2.2-5,5-5h28c2.8,0,5,2.2,5,5V78.3z"/>
	</g>
	<path d="M48.4,2.1l-7.7-2.1C40.5,0,40.2,0,40,0H12.9H5C2.2,0,0,2.2,0,5v35c0,2.8,2.2,5,5,5h7.9H40l1.2-0.2c0.2,0,0.3-0.1,0.5-0.1
		l6.7-1.8c2.6-0.7,4.5-3.1,4.5-5.5V7.6C52.9,5.3,50.9,2.8,48.4,2.1z M41.5,36.5c0,2.8-2.2,5-5,5H16.4H8.5c-0.1,0-0.3,0-0.4,0
		c-2.6-0.2-4.6-2.3-4.6-5v-28c0-2.6,2-4.8,4.6-5c0.1,0,0.3,0,0.4,0h7.9h20.1c2.8,0,5,2.2,5,5V36.5z M49.8,34.9
		c0,2.3-2.3,4.5-4.8,5.3l0-35.7c2.5,0.8,4.8,3.2,4.8,5.5V34.9z"/>
	<g>
		<path d="M81.8,41.8h-35c-2.8,0-5,2.2-5,5v35c0,2.8,2.2,5,5,5h35c2.8,0,5-2.2,5-5v-35C86.8,44,84.6,41.8,81.8,41.8z M83.3,78.3
			c0,2.8-2.2,5-5,5h-28c-2.8,0-5-2.2-5-5v-28c0-2.8,2.2-5,5-5h28c2.8,0,5,2.2,5,5V78.3z"/>
	</g>
	<g>
		<path d="M81.8,83.3h-35c-2.8,0-5,2.2-5,5v35c0,2.8,2.2,5,5,5h35c2.8,0,5-2.2,5-5v-35C86.8,85.5,84.6,83.3,81.8,83.3z M83.3,119.8
			c0,2.8-2.2,5-5,5h-28c-2.8,0-5-2.2-5-5v-28c0-2.8,2.2-5,5-5h28c2.8,0,5,2.2,5,5V119.8z"/>
	</g>
	<g>
		<g>
			<path d="M138.2,128.3h35c2.8,0,5-2.2,5-5v-35c0-2.8-2.2-5-5-5h-35c-2.8,0-5,2.2-5,5v35C133.2,126.1,135.5,128.3,138.2,128.3z
				 M136.7,91.8c0-2.8,2.2-5,5-5h28c2.8,0,5,2.2,5,5v28c0,2.8-2.2,5-5,5h-28c-2.8,0-5-2.2-5-5V91.8z"/>
		</g>
		<g>
			<path d="M179.6,128.3h35c2.8,0,5-2.2,5-5v-35c0-2.8-2.2-5-5-5h-35c-2.8,0-5,2.2-5,5v35C174.6,126.1,176.8,128.3,179.6,128.3z
				 M178.1,91.8c0-2.8,2.2-5,5-5h28c2.8,0,5,2.2,5,5v28c0,2.8-2.2,5-5,5h-28c-2.8,0-5-2.2-5-5V91.8z"/>
		</g>
		<g>
			<path d="M96.4,128.3h35c2.8,0,5-2.2,5-5v-35c0-2.8-2.2-5-5-5h-35c-2.8,0-5,2.2-5,5v35C91.4,126.1,93.6,128.3,96.4,128.3z
				 M94.9,91.8c0-2.8,2.2-5,5-5h28c2.8,0,5,2.2,5,5v28c0,2.8-2.2,5-5,5h-28c-2.8,0-5-2.2-5-5V91.8z"/>
		</g>
		<g>
			<path d="M96.4,86.8h35c2.8,0,5-2.2,5-5v-35c0-2.8-2.2-5-5-5h-35c-2.8,0-5,2.2-5,5v35C91.4,84.5,93.6,86.8,96.4,86.8z M94.9,50.3
				c0-2.8,2.2-5,5-5h28c2.8,0,5,2.2,5,5v28c0,2.8-2.2,5-5,5h-28c-2.8,0-5-2.2-5-5V50.3z"/>
		</g>
	</g>
	<g>
		<path d="M56,10.9v-4h17.5v4h-6.3v18.6h-4.9V10.9H56z"/>
		<path d="M75.8,27.4c-1.6-1.6-2.4-3.8-2.4-6.6c0-2.8,0.7-5,2.2-6.5s3.5-2.4,6.1-2.4c2.6,0,4.5,0.7,5.9,2.1c1.4,1.4,2,3.3,2,5.8V22
			H78.3c0.1,1.2,0.5,2.2,1.2,2.9c0.8,0.7,1.8,1,3.2,1c2,0,4-0.4,5.9-1.3v3.7c-1.6,0.9-3.8,1.3-6.4,1.3S77.4,29,75.8,27.4z
			 M78.4,18.9h6.8c0-1.2-0.3-2.1-0.9-2.7c-0.6-0.6-1.4-0.9-2.4-0.9c-1,0-1.8,0.3-2.4,0.9S78.5,17.7,78.4,18.9z"/>
		<path d="M91.9,16v-3.8h16.5V16h-5.8v13.5h-4.8V16H91.9z"/>
		<path d="M111.6,37.1V12.2h3.9l0.7,2.3h0.2c1.1-1.7,2.8-2.6,4.9-2.6s3.8,0.8,5,2.4c1.2,1.6,1.8,3.8,1.8,6.6c0,1.8-0.3,3.4-0.8,4.8
			c-0.6,1.4-1.3,2.4-2.4,3.1c-1,0.7-2.2,1.1-3.6,1.1c-2.1,0-3.7-0.7-4.9-2.2h-0.3c0.2,1.4,0.3,2.3,0.3,2.5v7H111.6z M116.5,20.8
			c0,1.9,0.3,3.2,0.8,4c0.6,0.8,1.5,1.2,2.7,1.2c2.2,0,3.3-1.7,3.3-5.2c0-1.7-0.3-3-0.8-3.8c-0.5-0.8-1.4-1.3-2.6-1.3
			s-2,0.4-2.6,1.1c-0.6,0.7-0.8,1.9-0.9,3.5V20.8z"/>
		<path d="M132.2,29.5V12.2h4.8v6.8c0,0.7-0.1,2.5-0.4,5.3l8.2-12.1h6v17.3H146v-6.9c0-1.2,0.1-3,0.3-5.2l-8.2,12.1H132.2z"/>
		<path d="M154.5,21c0-2.9,0.7-5.2,2.2-6.7c1.5-1.6,3.6-2.3,6.4-2.3c2.1,0,3.9,0.4,5.5,1.2l-1.4,3.6c-1.7-0.7-3.1-1-4.1-1
			c-2.5,0-3.8,1.7-3.8,5.1c0,3.4,1.3,5.1,3.8,5.1c1.8,0,3.4-0.5,5-1.5v4c-0.8,0.5-1.6,0.8-2.4,1c-0.8,0.2-1.8,0.3-3,0.3
			C157.3,29.8,154.5,26.9,154.5,21z"/>
	</g>
	<g>
		<path d="M142.4,73.4V50.9h13.7v4H147v18.6H142.4z"/>
		<path d="M157.6,81V56.2h3.7l0.6,2.3h0.2c1.1-1.7,2.6-2.6,4.6-2.6c2,0,3.6,0.8,4.7,2.4c1.1,1.6,1.7,3.8,1.7,6.6
			c0,1.8-0.3,3.4-0.8,4.8c-0.5,1.4-1.3,2.4-2.2,3.1c-1,0.7-2.1,1.1-3.4,1.1c-2,0-3.5-0.7-4.6-2.2h-0.2c0.2,1.4,0.2,2.3,0.2,2.5v7
			H157.6z M162.1,64.8c0,1.9,0.3,3.2,0.8,4s1.4,1.2,2.5,1.2c2,0,3-1.7,3-5.2c0-1.7-0.3-3-0.8-3.8c-0.5-0.8-1.3-1.3-2.4-1.3
			c-1.1,0-1.9,0.4-2.4,1.1s-0.8,1.9-0.8,3.5V64.8z"/>
		<path d="M174.2,56.2h5l3.1,9.7c0.3,0.8,0.5,1.8,0.5,3h0.1c0.1-1.1,0.3-2.1,0.6-3l3.1-9.7h4.9l-7,19.5c-0.6,1.8-1.6,3.1-2.8,4
			c-1.2,0.9-2.6,1.3-4.2,1.3c-0.8,0-1.6-0.1-2.3-0.3V77c0.5,0.1,1.2,0.2,1.9,0.2s1.4-0.3,2-0.8c0.6-0.5,1.1-1.3,1.4-2.3l0.3-0.8
			L174.2,56.2z"/>
		<path d="M193.9,73.4V56.2H209v17.3h-4.5V60h-6v13.5H193.9z"/>
		<path d="M213.8,73.4V56.2h15.1v17.3h-4.5V60h-6v13.5H213.8z"/>
	</g>
</g>
</svg>
