<?xml version="1.0" encoding="utf-8"?>
<!-- Generator: Adobe Illustrator 18.0.0, SVG Export Plug-In . SVG Version: 6.00 Build 0)  -->
<!DOCTYPE svg PUBLIC "-//W3C//DTD SVG 1.1//EN" "http://www.w3.org/Graphics/SVG/1.1/DTD/svg11.dtd">
<svg version="1.1" id="Capa_1" xmlns="http://www.w3.org/2000/svg" xmlns:xlink="http://www.w3.org/1999/xlink" x="0px" y="0px"
	 viewBox="250.6 45.3 434.9 439.7" enable-background="new 250.6 45.3 434.9 439.7" xml:space="preserve">
<g>
	<path d="M644,45.3H292.2c-22.9,0-41.6,18.6-41.6,41.6v335.4c0,22.9,18.6,41.6,41.6,41.6h13.2c-0.7,1.8-1.2,3.8-1.2,5.8
		c0,8.4,6.9,15.3,15.3,15.3h105.7c8.4,0,15.3-6.9,15.3-15.3c0-2.1-0.4-4-1.2-5.8h71.1c-0.7,1.8-1.2,3.8-1.2,5.8
		c0,8.4,6.9,15.3,15.3,15.3h105.7c8.4,0,15.3-6.9,15.3-15.3c0-2.1-0.4-4.1-1.2-5.9c22.7-0.3,41.1-18.8,41.1-41.5V86.9
		C685.6,64,666.9,45.3,644,45.3z M431.8,469.7c0,3.6-2.9,6.6-6.6,6.6H319.5c-3.6,0-6.6-2.9-6.6-6.6c0-2.6,1.5-4.8,3.7-5.8h111.5
		C430.3,464.9,431.8,467.1,431.8,469.7z M630.3,476.3H524.6c-3.6,0-6.6-2.9-6.6-6.6c0-2.6,1.5-4.8,3.7-5.8h111.5
		c2.2,1.1,3.7,3.3,3.7,5.8C636.9,473.3,633.9,476.3,630.3,476.3z M668.1,422.3c0,13.3-10.8,24.1-24.1,24.1H292.2
		c-13.3,0-24.1-10.8-24.1-24.1V86.9c0-13.3,10.8-24.1,24.1-24.1H644c13.3,0,24.1,10.8,24.1,24.1V422.3z"/>
	<path d="M368.8,204.3c-33.2,0-60.3,27-60.3,60.3c0,33.2,27,60.3,60.3,60.3c33.2,0,60.3-27,60.3-60.3
		C429.1,231.3,402.1,204.3,368.8,204.3z M368.8,314.3c-27.4,0-49.8-22.3-49.8-49.8s22.3-49.8,49.8-49.8c27.5,0,49.8,22.4,49.8,49.8
		S396.3,314.3,368.8,314.3z"/>
	<path d="M368.8,245c-10.8,0-19.7,8.8-19.7,19.7c0,10.8,8.8,19.7,19.7,19.7c10.8,0,19.7-8.8,19.7-19.7
		C388.5,253.8,379.6,245,368.8,245z M368.8,279c-7.9,0-14.4-6.5-14.4-14.4c0-7.9,6.5-14.4,14.4-14.4c7.9,0,14.4,6.5,14.4,14.4
		C383.2,272.6,376.8,279,368.8,279z"/>
	<path d="M350.2,280.5c-0.7,0-1.3,0.3-1.9,0.8l-13.2,13.1c-1,1-1,2.7,0,3.7c1,1,2.7,1,3.7,0l13.2-13.1c1-1,1-2.7,0-3.7
		C351.5,280.7,350.9,280.5,350.2,280.5z"/>
	<path d="M389.1,248.5l13.2-13.2c1-1,1-2.7,0-3.7c-0.5-0.5-1.2-0.8-1.9-0.8c-0.7,0-1.3,0.3-1.8,0.8l-13.2,13.1c-1,1-1,2.7,0,3.7
		C386.4,249.5,388,249.5,389.1,248.5z"/>
	<path d="M389.1,281.2c-0.5-0.5-1.2-0.8-1.8-0.8c-0.7,0-1.3,0.3-1.9,0.8c-1,1-1,2.7,0,3.7l13.2,13.1c1,1,2.7,1,3.7,0
		c1-1,1-2.7,0-3.7L389.1,281.2z"/>
	<path d="M348.3,249.5c1,1,2.7,1,3.7,0c1-1,1-2.7,0-3.7l-13.2-13.1c-0.5-0.5-1.2-0.8-1.8-0.8c-0.7,0-1.3,0.3-1.9,0.8
		c-1,1-1,2.7,0,3.7L348.3,249.5z"/>
	<path d="M391.2,264.7c0,1.5,1.2,2.6,2.6,2.6c0,0,0,0,0,0l18.6-0.1c1.5,0,2.6-1.2,2.6-2.6c0-1.4-1.2-2.6-2.6-2.6l-18.7,0.1
		C392.4,262.1,391.2,263.3,391.2,264.7z"/>
	<path d="M346.2,264.5c0-1.4-1.2-2.6-2.6-2.6c0,0,0,0,0,0l-18.6,0.1c-1.4,0-2.6,1.2-2.6,2.6c0,1.4,1.2,2.6,2.6,2.6h0l18.7-0.1
		C345,267.1,346.2,265.9,346.2,264.5z"/>
	<path d="M370.1,242.6c1.5,0,2.6-1.2,2.6-2.6l-0.1-18.7c0-1.5-1.2-2.6-2.6-2.6c0,0,0,0,0,0c-1.5,0-2.6,1.2-2.6,2.6l0.1,18.6
		C367.5,241.5,368.7,242.6,370.1,242.6z"/>
	<path d="M370,287c-1.5,0-2.6,1.2-2.6,2.6l0.1,18.7c0,1.4,1.2,2.6,2.6,2.6c0,0,0,0,0,0c1.5,0,2.6-1.2,2.6-2.6l-0.1-18.7
		C372.6,288.2,371.5,287,370,287z"/>
	<path d="M641.2,303.6v-97.4c4.2-1.5,7.2-5.5,7.2-10.2v-27.3c0-4.7-3-8.6-7.2-10.2v-49.8c0-2.4-2-4.4-4.4-4.4s-4.4,2-4.4,4.4v49.8
		c-4.2,1.5-7.2,5.5-7.2,10.2V196c0,4.7,3,8.6,7.2,10.2v97.5c-4,1.6-6.9,5.5-6.9,10.1v27.3c0,4.6,2.9,8.5,6.9,10.1v37.1
		c0,2.4,2,4.4,4.4,4.4s4.4-2,4.4-4.4v-37c4.3-1.5,7.5-5.4,7.5-10.2v-27.3C648.7,309.1,645.5,305.1,641.2,303.6z"/>
	<path d="M580.5,215.5H468.1c-8.6,0-15.3,5.5-15.3,12.5v63.8c0,7,6.7,12.5,15.3,12.5h112.4c8.6,0,15.3-5.5,15.3-12.5V228
		C595.8,221,589.1,215.5,580.5,215.5z M587.1,291.9c0,1.8-2.8,3.8-6.6,3.8H468.1c-3.8,0-6.6-2-6.6-3.8V228c0-1.8,2.8-3.8,6.6-3.8
		h112.4c3.8,0,6.6,2,6.6,3.8V291.9z"/>
</g>
</svg>
