<?xml version="1.0" encoding="iso-8859-1"?>
<!-- Generator: Adobe Illustrator 17.1.0, SVG Export Plug-In . SVG Version: 6.00 Build 0)  -->
<!DOCTYPE svg PUBLIC "-//W3C//DTD SVG 1.1//EN" "http://www.w3.org/Graphics/SVG/1.1/DTD/svg11.dtd">
<svg version="1.1" xmlns="http://www.w3.org/2000/svg" xmlns:xlink="http://www.w3.org/1999/xlink" x="0px" y="0px"
	 viewBox="0 0 64 64" style="enable-background:new 0 0 64 64;" xml:space="preserve">
<g id="imagenes">
</g>
<g id="iconos">
	<rect x="15" y="59" width="14" height="5"/>
	<rect x="31" y="59" width="14" height="5"/>
	<rect x="47" y="59" width="14" height="5"/>
	<rect x="7" y="52" width="14" height="5"/>
	<rect x="23" y="52" width="14" height="5"/>
	<rect x="39" y="52" width="14" height="5"/>
	<rect x="55" y="52" width="6" height="5"/>
	<path d="M7,45.784V50h6v-1.454C10.78,48.078,8.746,47.111,7,45.784z"/>
	<rect x="7" y="59" width="6" height="5"/>
	<path d="M16.125,48.875c-0.38,0-0.752-0.029-1.125-0.057V50h14v-5h-2.801C23.521,47.401,19.996,48.875,16.125,48.875z"/>
	<rect x="31" y="45" width="14" height="5"/>
	<rect x="47" y="45" width="14" height="5"/>
	<path d="M37,43v-5h-6.369c-0.539,1.837-1.42,3.524-2.566,5H37z"/>
	<rect x="39" y="38" width="14" height="5"/>
	<rect x="55" y="38" width="6" height="5"/>
	<path d="M31,31.084c0.155,0.867,0.25,1.755,0.25,2.666c0,0.766-0.076,1.514-0.186,2.25H45v-5H31V31.084z"/>
	<rect x="47" y="31" width="14" height="5"/>
	<path d="M8.125,17.396c-0.804,1.015-0.987,2.728-0.964,4.2c0.007,0.43,0.029,0.84,0.059,1.203c0.038,0.449,0.086,0.829,0.124,1.094
		l0.16-0.023C4.749,26.275,3,29.805,3,33.75C3,38.533,5.567,42.706,9.39,45c1.108,0.665,2.32,1.169,3.61,1.485
		c0.65,0.159,1.316,0.275,2,0.333c0.372,0.032,0.745,0.057,1.125,0.057c2.466,0,4.764-0.692,6.735-1.875
		c0.938-0.563,1.807-1.228,2.574-2c1.385-1.394,2.448-3.101,3.099-5c0.457-1.335,0.717-2.76,0.717-4.25
		c0-0.868-0.089-1.715-0.25-2.536c-0.014-0.072-0.028-0.143-0.044-0.214c-1.265-5.928-6.526-10.375-12.831-10.375
		c-0.255,0-0.503,0.024-0.754,0.038l0.035-0.029c-0.278-0.335-0.542-0.631-0.804-0.923c-0.288-0.321-0.564-0.612-0.834-0.883
		c-1.521-1.53-2.765-2.271-3.834-2.287L3.25,0.924C3.032,0.416,2.445,0.182,1.937,0.398C1.429,0.615,1.193,1.203,1.411,1.711
		L8.125,17.396z M11.432,19.38c0.253,0.209,0.537,0.465,0.86,0.788c0.239,0.238,0.501,0.517,0.782,0.828
		c-1.385,0.33-2.681,0.879-3.857,1.609c-0.029-0.389-0.041-0.769-0.042-1.137c-0.001-0.409,0.01-0.804,0.042-1.157
		c0.01-0.116,0.027-0.214,0.041-0.322c0.051,0.082,0.109,0.153,0.178,0.216c0.183,0.165,0.416,0.266,0.664,0.266
		c0.131,0,0.265-0.026,0.393-0.081c0.368-0.157,0.586-0.51,0.599-0.885c0.005-0.143-0.014-0.288-0.073-0.428l-0.01-0.023
		C11.138,19.145,11.279,19.253,11.432,19.38z"/>
</g>
</svg>
