<?xml version="1.0" encoding="utf-8"?>
<!-- Generator: Adobe Illustrator 18.0.0, SVG Export Plug-In . SVG Version: 6.00 Build 0)  -->
<!DOCTYPE svg PUBLIC "-//W3C//DTD SVG 1.1//EN" "http://www.w3.org/Graphics/SVG/1.1/DTD/svg11.dtd">
<svg version="1.1" id="Слой_1" xmlns="http://www.w3.org/2000/svg" xmlns:xlink="http://www.w3.org/1999/xlink" x="0px" y="0px"
	 viewBox="204.4 0 317 420.4" enable-background="new 204.4 0 317 420.4" xml:space="preserve">
<g>
	<path d="M329,181.3c50.8,0,46.2,0,97.1,0c12.8,0,12.8-19.8,0-19.8c-50.8,0-46.2,0-97.1,0C316.3,161.5,316.3,181.3,329,181.3z"/>
	<path d="M329,240.6c50.8,0,46.2,0,97.1,0c12.8,0,12.8-19.8,0-19.8c-50.8,0-46.2,0-97.1,0C316.3,220.8,316.3,240.6,329,240.6z"/>
	<path d="M329,118.6c50.8,0,46.2,0,97.1,0c12.8,0,12.8-19.8,0-19.8c-50.8,0-46.2,0-97.1,0C316.3,98.8,316.3,118.6,329,118.6z"/>
	<path d="M292.8,93.8h-27.6c-1,0-1.8,0.6-1.8,1.4V123c0,0.7,0.8,1.3,1.8,1.3h27.6c1,0,1.8-0.6,1.8-1.3V95.2
		C294.6,94.4,293.8,93.8,292.8,93.8z"/>
	<path d="M291.1,155.6h-27.6c-1,0-1.8,0.6-1.8,1.4v27.8c0,0.7,0.8,1.4,1.8,1.4h27.6c1,0,1.8-0.6,1.8-1.4v-27.8
		C292.9,156.2,292.1,155.6,291.1,155.6z"/>
	<path d="M291.1,215.7h-27.6c-1,0-1.8,0.6-1.8,1.4v27.8c0,0.7,0.8,1.3,1.8,1.3h27.6c1,0,1.8-0.6,1.8-1.3v-27.8
		C292.9,216.3,292.1,215.7,291.1,215.7z"/>
	<path d="M291.1,278.1h-27.6c-1,0-1.8,0.6-1.8,1.4v27.8c0,0.7,0.8,1.4,1.8,1.4h27.6c1,0,1.8-0.6,1.8-1.4v-27.8
		C292.9,278.7,292.1,278.1,291.1,278.1z"/>
	<polygon points="493.8,301.6 474,287.8 429.9,350.9 407.4,328.1 390.2,345.1 433.1,388.4 	"/>
	<path d="M481.5,255.1V17.4h-43V0H252.2v17.4h-47.8V376h152v44.4h165V255.1H481.5z M230.6,349.8V43.7h21.5v17.4h186.4V43.7h16.7
		v211.4h-98.8v28.4c-7.1,0-15.8,0-27.3,0c-12.8,0-12.8,19.8,0,19.8c11.6,0,20.2,0,27.3,0v46.5L230.6,349.8L230.6,349.8z
		 M503.9,402.9h-130V272.6h130L503.9,402.9L503.9,402.9z"/>
</g>
</svg>
