<?xml version="1.0" encoding="utf-8"?>
<!-- Generator: Adobe Illustrator 17.1.0, SVG Export Plug-In . SVG Version: 6.00 Build 0)  -->
<!DOCTYPE svg PUBLIC "-//W3C//DTD SVG 1.1//EN" "http://www.w3.org/Graphics/SVG/1.1/DTD/svg11.dtd">
<svg version="1.1" id="Capa_1" xmlns="http://www.w3.org/2000/svg" xmlns:xlink="http://www.w3.org/1999/xlink" x="0px" y="0px"
	 viewBox="0 0 792 612" enable-background="new 0 0 792 612" xml:space="preserve">
<path d="M568,191.2v143.5h9.8l-14.7,25.4l-14.7-25.4h9.8V191.2h-9.8l14.7-25.4l14.7,25.4H568z M462.7,411v9.8H338.5V411l-25.4,14.7
	l25.4,14.7v-9.8H463v9.8l25.4-14.7L463,411H462.7z M636.3,483.4c-1.1,1.5-2.2,2.9-3.4,4.3c-29.5,35.3-60.4,69.9-90.4,105H204.8V19
	h439.7c0,6.1,0,12.2,0,18.3c0,31.2,0,62.4,0,93.6c0,44.3,0,88.6,0,132.9c0,42.1,0,84.3,0,126.4c0,15.5,0,31,0,46.5
	C644.5,453.3,646.7,469.1,636.3,483.4z M596.7,478.3h-57.2v63.6L596.7,478.3z M616,47.7H233.5v516.5h277.2V463.9
	c0-8,6.4-14.4,14.4-14.4H616h0V47.7z M403.3,152.7c0.6,0,1.5,0.3,2.1,0.3H568c2.8,0,4.9-2.1,4.9-4.9c0-2.8-2.1-4.9-4.9-4.9H405.5
	c-2.4,0-4.6,2.1-4.6,5.2c0,1.2,0.6,2.4,1.2,3.1L403.3,152.7z M291.3,248.5h-36.7l142.9-97.9l142.9,97.9h-39.2l0,124.2h67.3
	c2.8,0,4.9,2.1,4.9,4.9c0,2.8-2.1,4.9-4.9,4.9h-67.3v47.7c0,2.8-2.1,4.9-4.9,4.9c-2.8,0-4.9-2.1-4.9-4.9v-47.7h-19V287h-47.7v95.5
	H301.1v67.3c0,2.8-2.1,4.9-4.9,4.9c-2.8,0-4.9-2.1-4.9-4.9L291.3,248.5z M338.5,334.8H396V287h-57.5V334.8z"/>
</svg>
