<?xml version="1.0" encoding="utf-8"?>
<!-- Generator: Adobe Illustrator 18.0.0, SVG Export Plug-In . SVG Version: 6.00 Build 0)  -->
<!DOCTYPE svg PUBLIC "-//W3C//DTD SVG 1.1//EN" "http://www.w3.org/Graphics/SVG/1.1/DTD/svg11.dtd">
<svg version="1.1" id="Capa_1" xmlns="http://www.w3.org/2000/svg" xmlns:xlink="http://www.w3.org/1999/xlink" x="0px" y="0px"
	 viewBox="305 17.4 402.5 525" enable-background="new 305 17.4 402.5 525" xml:space="preserve">
<path d="M637.4,175v131.3h9l-13.5,23.2l-13.5-23.2h9V175h-9l13.5-23.2l13.5,23.2H637.4z M541,376.1v9H427.4v-9l-23.2,13.5l23.2,13.5
	v-9h113.9v9l23.2-13.5l-23.2-13.5H541z M699.9,442.3c-1,1.4-2,2.7-3.1,3.9c-27,32.3-55.3,64-82.7,96.1H305v-525h402.3
	c0,5.6,0,11.2,0,16.7c0,28.5,0,57.1,0,85.6c0,40.5,0,81.1,0,121.6c0,38.5,0,77.1,0,115.7c0,14.2,0,28.4,0,42.5
	C707.4,414.8,709.4,429.2,699.9,442.3z M663.6,437.7h-52.3v58.2L663.6,437.7z M681.3,43.6h-350v472.6H585v-91.8
	c0-7.3,5.9-13.2,13.2-13.2h83.2l0,0V43.6z M486.7,139.7c0.5,0,1.4,0.3,1.9,0.3h148.8c2.6,0,4.5-1.9,4.5-4.5s-1.9-4.5-4.5-4.5H488.7
	c-2.2,0-4.2,1.9-4.2,4.8c0,1.1,0.5,2.2,1.1,2.8L486.7,139.7z M384.2,227.4h-33.6l130.8-89.6l130.8,89.6h-35.9V341h61.6
	c2.6,0,4.5,1.9,4.5,4.5c0,2.6-1.9,4.5-4.5,4.5h-61.6v43.6c0,2.6-1.9,4.5-4.5,4.5s-4.5-1.9-4.5-4.5V350h-17.4v-87.4h-43.6V350H393.2
	v61.6c0,2.6-1.9,4.5-4.5,4.5s-4.5-1.9-4.5-4.5L384.2,227.4z M427.4,306.4H480v-43.7h-52.6V306.4z"/>
</svg>
