<?xml version="1.0" encoding="iso-8859-1"?>
<!-- Generator: Adobe Illustrator 17.0.2, SVG Export Plug-In . SVG Version: 6.00 Build 0)  -->
<!DOCTYPE svg PUBLIC "-//W3C//DTD SVG 1.1//EN" "http://www.w3.org/Graphics/SVG/1.1/DTD/svg11.dtd">
<svg version="1.1" id="Capa_1" xmlns="http://www.w3.org/2000/svg" xmlns:xlink="http://www.w3.org/1999/xlink" x="0px" y="0px"
	 width="64px" height="64px" viewBox="0 0 64 64" style="enable-background:new 0 0 64 64;" xml:space="preserve">
<g>
	<path style="fill:#010202;" d="M14.31,35.424c-3.751,1.813,4.855,9.943,5.92,11.27c2.24,2.788,4.479,5.575,6.719,8.362
		c0.841,1.047,2.002,3.176,3.649,3.055c1.611-0.119,2.455-1.588,3.344-2.695c2.373-2.953,4.746-5.907,7.12-8.86
		c1.623-2.019,3.246-4.039,4.869-6.059c0.493-0.614,1.9-1.78,1.999-2.64c0.47-4.064-5.006-2.891-7.952-2.783
		c-1.393-1.261,1.919-16.52,2.203-18.543c0.136-0.97,1.036-3.899-0.101-4.689c-1.563-1.086-4.065-0.602-5.823-0.602
		c-3.661,0-7.322,0-10.983,0c-1.823,0-4.3-0.485-5.889,0.716c-1.145,0.866-0.441,3.122-0.286,4.224
		c0.54,3.852,1.082,7.703,1.622,11.554c0.34,2.426,0.681,4.851,1.021,7.277C21.737,34.967,15.348,34.922,14.31,35.424z
		 M17.133,39.785c-0.135-0.167-0.27-0.335-0.404-0.503c-2.573-3.202-0.24-2.968,2.4-2.777c-0.041,0.049-0.092,0.094-0.124,0.146
		c-0.611,0.994-1.218,1.989-1.817,2.99C17.162,39.684,17.153,39.737,17.133,39.785z M25.548,50.021
		c-0.033,0.044-0.048,0.097-0.074,0.145c-0.15-0.186-0.3-0.372-0.449-0.559c0.024-0.034,0.056-0.053,0.077-0.093
		c0.539-0.999,1.084-1.996,1.639-2.987c3.938-5.955,7.856-11.923,11.802-17.875c-0.042,0.303-0.086,0.605-0.128,0.909
		c-0.264,0.558-0.517,1.122-0.795,1.673c-3.623,6.131-7.363,12.188-11.486,17.998C25.939,49.495,25.743,49.758,25.548,50.021z
		 M42.623,38.997c-0.362,1.032-0.728,2.062-1.095,3.091c-0.185,0.52-0.573,1.323-0.869,1.789c-0.68,1.071-1.388,2.143-2.11,3.211
		c-0.474,0.589-0.947,1.178-1.42,1.767c1.326-2.545,2.668-5.083,4.054-7.603c0.427-0.775,0.856-1.551,1.285-2.326
		C42.734,38.444,42.805,38.476,42.623,38.997z M41.492,36.453c-0.061,0.069-0.129,0.136-0.172,0.211
		c-3.738,6.409-7.39,12.868-10.976,19.367c-0.006,0.011-0.008,0.023-0.014,0.034c-0.169-0.118-0.349-0.29-0.544-0.532
		c-1.08-1.344-2.16-2.688-3.239-4.032c0.04-0.039,0.085-0.065,0.121-0.114c0.522-0.711,1.039-1.425,1.55-2.144
		c3.401-4.623,6.68-9.342,9.51-14.292c0.078,0.619,0.393,1.142,1.225,1.504c0.142,0.062,0.301,0.075,0.463,0.057
		c0.004,0,0.006,0.001,0.01,0.001C39.717,36.514,40.532,36.468,41.492,36.453z M39.973,18.459c-2.923,5.71-5.89,11.396-8.994,17.001
		c-1.025,1.83-2.049,3.651-3.106,5.426c-0.92,1.549-1.822,3.109-2.713,4.675c-0.402,0.672-0.805,1.345-1.213,2.014
		c-0.083,0.126-0.168,0.252-0.252,0.378c-0.499-0.621-0.998-1.242-1.497-1.863c0.031-0.037,0.069-0.058,0.097-0.103
		c6.003-9.715,11.925-19.481,17.912-29.207C40.129,17.34,40.051,17.899,39.973,18.459z M22.583,42.054
		c2.085-3.623,4.199-7.225,6.381-10.778c2.476-4.034,5.091-7.984,7.596-11.994c0.293-0.468,0.295-0.469,0.006,0.002
		c-4.661,7.59-9.292,15.198-13.957,22.786C22.319,42.54,22.307,42.533,22.583,42.054z M40.319,12.985
		c0.034,0.021,0.074,0.04,0.103,0.063c-0.637,1.024-1.275,2.047-1.91,3.072c-0.291,0.47-0.293,0.469-0.009-0.005
		C39.123,15.08,39.729,14.037,40.319,12.985z M32.373,16.424c0.604-1.185,1.198-2.375,1.781-3.57
		c0.039-0.08,0.045-0.151,0.059-0.225c0.362-0.023,0.809-0.052,1.309-0.077c-0.071,0.065-0.147,0.128-0.201,0.199
		c-0.944,1.247-1.887,2.496-2.813,3.756C32.18,16.951,32.122,16.916,32.373,16.424z M27.663,12.795
		c0.029-0.045,0.031-0.084,0.051-0.127c1.481,0,2.962,0,4.444,0c-0.045,0.062-0.1,0.12-0.132,0.186
		c-2.789,5.754-5.852,11.378-9.008,16.958c-0.352-2.502-0.703-5.003-1.054-7.504C23.807,19.095,25.685,15.91,27.663,12.795z
		 M21.214,16.966c-0.029-0.208-0.058-0.415-0.087-0.622c-0.072-0.511-0.186-1.006-0.272-1.46c0.439-0.698,0.879-1.395,1.323-2.088
		c0.027-0.043,0.035-0.08,0.056-0.121c0.045-0.001,0.083-0.006,0.129-0.006c0.432,0,0.865,0,1.297,0
		c-0.042,0.053-0.094,0.103-0.125,0.159C22.765,14.208,21.991,15.588,21.214,16.966z M21.227,36.579
		c1.508-0.051,2.675-0.463,2.455-2.028c-0.078-0.558-0.157-1.116-0.235-1.674c4.372-6.896,9.037-13.608,13.951-20.125
		c0.065-0.086,0.094-0.164,0.122-0.242c0.347,0.005,0.684,0.021,1.006,0.047c-0.078,0.087-0.153,0.177-0.207,0.274
		c-4.147,7.508-9.163,14.558-13.556,21.92c-1.64,2.747-3.25,5.518-4.842,8.3c-0.024,0.043-0.032,0.095-0.051,0.141
		c-0.477-0.594-0.955-1.188-1.432-1.782c0.027-0.035,0.061-0.055,0.085-0.097c0.891-1.549,1.781-3.099,2.673-4.648
		C21.216,36.635,21.214,36.609,21.227,36.579z"/>
</g>
</svg>
