<?xml version="1.0" encoding="utf-8"?>
<!-- Generator: Adobe Illustrator 17.0.0, SVG Export Plug-In . SVG Version: 6.00 Build 0)  -->
<!DOCTYPE svg PUBLIC "-//W3C//DTD SVG 1.1//EN" "http://www.w3.org/Graphics/SVG/1.1/DTD/svg11.dtd">
<svg version="1.1" id="Layer_1" xmlns="http://www.w3.org/2000/svg" xmlns:xlink="http://www.w3.org/1999/xlink" x="0px" y="0px"
	 width="792px" height="612px" viewBox="0 0 792 612" enable-background="new 0 0 792 612" xml:space="preserve">
<g id="imagenes">
</g>
<g>
	<path d="M477.281,329.906c0-2.639-2.142-4.781-4.781-4.781h-66.938V200.812h39.025L301.57,102.797l-143.036,98.016h36.653v133.875
		h9.562h124.312v-95.625h47.812v95.625h19.312V382.5c0,2.639,2.142,4.781,4.781,4.781s4.781-2.142,4.781-4.781v-47.812h66.75
		C475.139,334.688,477.281,332.546,477.281,329.906z M300.375,286.875h-4.781H243v-43.031v-4.781h57.375V286.875z"/>
	<path d="M306.495,103.705l1.253,1.081c0.536,0.22,1.568,0.402,2.19,0.402H472.5c2.639,0,4.781-2.142,4.781-4.781
		s-2.142-4.781-4.781-4.781H309.938c-2.639,0-4.781,2.142-4.781,4.781c0,0.105,0.048,0.191,0.057,0.296
		C305.29,101.86,305.74,102.912,306.495,103.705z"/>
	<polygon points="482.311,143.438 467.719,118.154 453.126,143.438 462.938,143.438 462.938,286.875 453.126,286.875 
		467.719,312.149 482.311,286.875 472.5,286.875 472.5,143.438 	"/>
	<polygon points="367.312,372.938 243,372.938 243,363.126 217.717,377.719 243,392.311 243,382.5 367.312,382.5 367.312,392.311 
		392.596,377.719 367.312,363.126 	"/>
	<polygon points="452.753,521.223 458.405,583.628 509.411,550.14 630.865,312.187 574.207,283.27 	"/>
	<path d="M645.256,233.669l-2.831-1.444c-13.301-6.789-32.732-9.323-39.398,3.729l-13.483,26.412l56.658,28.917l13.483-26.412
		C666.351,251.819,658.558,240.459,645.256,233.669z"/>
</g>
</svg>
