<?xml version="1.0" encoding="iso-8859-1"?>
<!-- Generator: Adobe Illustrator 16.0.4, SVG Export Plug-In . SVG Version: 6.00 Build 0)  -->
<!DOCTYPE svg PUBLIC "-//W3C//DTD SVG 1.1//EN" "http://www.w3.org/Graphics/SVG/1.1/DTD/svg11.dtd">
<svg version="1.1" id="Capa_1" xmlns="http://www.w3.org/2000/svg" xmlns:xlink="http://www.w3.org/1999/xlink" x="0px" y="0px"
	  viewBox="0 0 20 20" style="enable-background:new 0 0 20 20;" xml:space="preserve">
<path style="fill:#010002;" d="M16,0H4C1.8,0,0,1.8,0,4v12c0,2.2,1.8,4,4,4h12c2.2,0,4-1.8,4-4V4C20,1.8,18.2,0,16,0z
	 M14.137,10.304v2.156c0,0.157-0.143,0.287-0.319,0.287H9.086c-0.174,0-0.318-0.129-0.318-0.287v-2.156
	c0-0.158,0.145-0.286,0.318-0.286h4.731C13.994,10.018,14.137,10.146,14.137,10.304z M10.721,5.752
	c0.155,0.109,0.193,0.325,0.084,0.48l-1.08,1.552C9.613,7.941,9.399,7.979,9.244,7.87L8.921,7.645l1.466-2.123L10.721,5.752z
	 M3.727,3.418C3.849,3.377,3.982,3.333,4.05,3.315C5.28,2.98,6.692,3.192,8.181,4.233c0.106,0.076,0.218,0.151,0.324,0.226
	c0.518,1.175,1.505,1.055,1.505,1.055C9.587,6.117,9.163,6.72,8.741,7.324c-0.01-0.042-0.03-0.085-0.049-0.129
	C8.682,7.175,8.67,7.152,8.657,7.129C8.64,7.1,8.621,7.072,8.601,7.043C8.591,7.03,8.582,7.016,8.57,7.002
	C8.544,6.97,8.513,6.942,8.482,6.915C8.421,6.863,8.346,6.822,8.257,6.804C7.686,6.688,7.222,7.129,7.002,7.387
	C6.955,7.447,6.812,7.639,6.854,7.58c0.007-0.011-1.479-1.038-1.48-1.042C5.37,6.532,5.723,6.04,5.899,5.791
	c0.654-0.934-0.13-1.843-1.128-2.035C4.537,3.712,4.312,3.729,4.078,3.739C4.021,3.742,3.905,3.761,3.791,3.781
	C3.549,3.82,3.511,3.492,3.727,3.418z M3.633,11.862c-0.459-0.051-0.925-0.354-1.133-0.796l2.862-4.088l1.137,0.796L3.633,11.862z
	 M10.772,16.545c0,0.157-0.141,0.286-0.316,0.286H5.725c-0.176,0-0.318-0.129-0.318-0.286V14.39c0-0.159,0.143-0.286,0.318-0.286
	h4.731c0.176,0,0.316,0.127,0.316,0.286V16.545z M17.5,16.546c0,0.157-0.143,0.285-0.319,0.285h-4.73
	c-0.177,0-0.319-0.128-0.319-0.285V14.39c0-0.158,0.143-0.286,0.319-0.286h4.73c0.177,0,0.319,0.128,0.319,0.286V16.546z"/>
<g>
</g>
<g>
</g>
<g>
</g>
<g>
</g>
<g>
</g>
<g>
</g>
<g>
</g>
<g>
</g>
<g>
</g>
<g>
</g>
<g>
</g>
<g>
</g>
<g>
</g>
<g>
</g>
<g>
</g>
</svg>
