<?xml version="1.0" encoding="utf-8"?>
<!-- Generator: Adobe Illustrator 18.0.0, SVG Export Plug-In . SVG Version: 6.00 Build 0)  -->
<!DOCTYPE svg PUBLIC "-//W3C//DTD SVG 1.1//EN" "http://www.w3.org/Graphics/SVG/1.1/DTD/svg11.dtd">
<svg version="1.1" id="Capa_1" xmlns="http://www.w3.org/2000/svg" xmlns:xlink="http://www.w3.org/1999/xlink" x="0px" y="0px"
	 width="16px" height="30px" viewBox="0 0 11 20.6" enable-background="new 0 0 11 20.6" xml:space="preserve">
<path d="M0.2,10.8l9.6,9.6c0.1,0.1,0.3,0.2,0.5,0.2s0.3-0.1,0.5-0.2l0,0c0.1-0.1,0.2-0.3,0.2-0.5v-4.7c0-0.2-0.1-0.3-0.2-0.5
	l-4.5-4.5l4.5-4.5C10.9,5.7,11,5.5,11,5.4V0.7c0-0.2-0.1-0.3-0.2-0.5l0,0C10.7,0.1,10.5,0,10.3,0C10.1,0,10,0.1,9.8,0.2L0.2,9.8
	C-0.1,10.1-0.1,10.5,0.2,10.8z"/>
</svg>
