<?xml version="1.0" encoding="utf-8"?>
<!-- Generator: Adobe Illustrator 16.0.0, SVG Export Plug-In . SVG Version: 6.00 Build 0)  -->
<!DOCTYPE svg PUBLIC "-//W3C//DTD SVG 1.1//EN" "http://www.w3.org/Graphics/SVG/1.1/DTD/svg11.dtd">
<svg version="1.1" id="Layer_1" xmlns="http://www.w3.org/2000/svg" xmlns:xlink="http://www.w3.org/1999/xlink" x="0px" y="0px"
	 viewBox="0 0 126 126" enable-background="new 0 0 126 126" xml:space="preserve">
<path fill="#231F20" d="M33.542,49.857c-0.203,0.375-0.19,0.776,0.029,0.897c0.003,0.002,0.006,0.003,0.008,0.004l6.945,3.806
	l0.532,0.294l2.622,1.436l0.556,0.304l6.793,3.723l0.161,0.09l1.08,0.593c0.159,0.087,0.387,0.008,0.585-0.204l18.813-20.645
	c0.235-0.254,0.366-0.633,0.316-0.905l-0.233-1.206c-0.005-0.015-0.008-0.025-0.014-0.038c-0.003-0.017-0.007-0.03-0.015-0.045
	c-0.011-0.028-0.023-0.051-0.036-0.076c-0.008-0.008-0.012-0.016-0.016-0.024c-0.024-0.029-0.051-0.051-0.078-0.069
	c-0.002,0-0.005-0.001-0.008-0.002l-20.377-6.732c-0.159-0.088-0.393-0.006-0.591,0.21L33.8,49.525
	C33.704,49.609,33.613,49.722,33.542,49.857z M38.863,51.89l2.326-2.537l0.967-0.338l3.282,1.548l-0.06,1.002l-2.376,2.595
	L38.863,51.89z M50.667,47.043l-0.005-0.776l2.254-2.465l1.044-0.365l3.824,1.579l-0.053,0.845l-2.351,2.565l-0.847,0.327
	L50.667,47.043z M54.032,49.095l-0.054,0.862l-2.067,2.26l-0.954,0.367l-3.823-1.797l-0.003-0.662l2.19-2.396l0.91-0.317
	L54.032,49.095z M54.291,43.018l-0.003-0.714l2.363-2.58l0.78-0.274l4.084,1.579l-0.044,0.751l-2.246,2.45l-1.034,0.4L54.291,43.018
	z M56.206,39.734l-2.186,2.387l-0.98,0.38l-3.509-1.452l-0.005-0.808l2.146-2.349l0.918-0.319l3.664,1.416L56.206,39.734z
	 M52.595,42.872l-0.056,0.866l-2.11,2.309l-1.075,0.416l-3.432-1.517l-0.003-0.767l2.213-2.416l0.962-0.336L52.595,42.872z
	 M48.964,46.854l-0.052,0.851l-2.007,2.193l-0.915,0.352l-3.416-1.609l-0.004-0.797l1.943-2.124l1.051-0.369L48.964,46.854z
	 M43.296,54.317l2.505-2.739l1.035-0.362l3.624,1.707l-0.056,0.941l-2.656,2.895L43.296,54.317z M51.779,58.971l-3.741-2.053
	l2.766-3.018l0.995-0.35l3.446,1.623L51.779,58.971z M55.609,54.776l-3.455-1.627l-0.002-0.722l2.128-2.322l1.139-0.4l3.438,1.518
	L55.609,54.776z M59.225,50.824l-3.496-1.545l-0.006-0.752l2.396-2.615l0.991-0.347l3.569,1.477L59.225,50.824z M63.049,46.638
	l-3.564-1.475l-0.001-0.736l2.294-2.507l1.072-0.377l3.584,1.39L63.049,46.638z M70.032,38.996l-3.228,3.529l-3.585-1.387
	l-0.003-0.791l2.541-2.775L70.032,38.996z M65.428,37.459l-2.549,2.782l-0.99,0.382l-3.927-1.522l-0.004-0.807l2.332-2.546
	L65.428,37.459z M59.956,35.635l-2.195,2.401l-1.276,0.493l-3.454-1.338l-0.004-0.777l2.165-2.367L59.956,35.635z M50.732,32.562
	l4.126,1.374l-2.082,2.277l-1.143,0.438l-3.441-1.33L50.732,32.562z M47.818,35.726l3.506,1.357l-0.05,0.769l-2.045,2.233
	l-1.052,0.405l-3.438-1.421L47.818,35.726z M44.369,39.473l3.456,1.429l-0.044,0.773l-2.169,2.365l-0.928,0.358l-3.448-1.523
	L44.369,39.473z M40.868,43.274l3.359,1.483l-0.054,0.858l-1.883,2.056l-0.977,0.38l-3.378-1.591L40.868,43.274z M37.57,46.856
	l3.306,1.557l-0.055,0.863l-2.247,2.455l-3.649-2.002L37.57,46.856z M117.654,50.591L86.288,29.025
	c-0.158-0.146-0.373-0.216-0.684-0.22c-0.079,0.011-0.155,0.032-0.229,0.066L32.851,17.077c-0.211,0-0.414,0.082-0.572,0.229
	L8.343,39.658c-0.197,0.183-0.296,0.45-0.265,0.703c0.025,0.262,0.174,0.502,0.401,0.643l3.928,2.389l1.157,30.668l0.118,0.415
	c0.045,0.077,0.1,0.145,0.161,0.202l46.412,34.08c0.145,0.106,0.322,0.165,0.504,0.165c0.146,0,0.295-0.042,0.343-0.081
	l50.198-18.148l0.159-0.087c0.058-0.039,0.1-0.079,0.131-0.108l0.171-0.206c0.043-0.082,0.071-0.169,0.086-0.271l0.088-36.554
	l5.364-1.431c0.3-0.081,0.532-0.318,0.604-0.615C117.977,51.121,117.884,50.805,117.654,50.591z M10.319,40.135l22.846-21.333
	L84.14,30.483L54.076,66.761L17.775,44.672l0.036-2.907l3.879,2.126l0.456,0.251l2.242,1.227l0.477,0.26l5.804,3.183l0.14,0.076
	l0.927,0.508c0.135,0.074,0.326,0.006,0.499-0.175L48.318,31.57c0.2-0.218,0.314-0.541,0.27-0.774l-0.2-1.032
	c-0.004-0.012-0.005-0.021-0.012-0.032c-0.002-0.013-0.004-0.025-0.01-0.038c-0.012-0.024-0.022-0.043-0.032-0.064
	c-0.007-0.006-0.01-0.014-0.014-0.022c-0.021-0.023-0.042-0.042-0.066-0.059c-0.003,0-0.006,0-0.008-0.001l-17.421-5.755
	c-0.136-0.076-0.337-0.006-0.506,0.179l-14.375,15.61c-0.083,0.072-0.16,0.168-0.223,0.283c-0.174,0.321-0.163,0.665,0.024,0.769
	c0.005,0.002,0.008,0.002,0.008,0.004l1.313,0.719l-0.035,2.863L10.319,40.135z M37.816,64.649l-0.033,3.208l-18.336,4.174v-3.649
	L37.816,64.649z M30.466,65.122l-1.907-1.473l4.651-0.956c0.229-0.047,0.395-0.246,0.399-0.48l0.11-5.851l14.854,9.039l-9.788,2.229
	l0.042-4.207L30.466,65.122z M19.754,57.06v3.149c-0.014,0.001-0.027-0.003-0.042,0l-2.134,0.397l0.173-13.962l13.16,8.009
	l-10.745,1.914C19.928,56.609,19.754,56.817,19.754,57.06z M20.754,57.479l11.448-2.039l0.528,0.32l-0.113,6.035l-11.863,2.438
	V57.479z M26.052,64.165l1.216-0.25l0.941,0.728l-2.545,0.505l0.512-0.913L26.052,64.165z M30.364,37.459l-0.005-0.664l1.927-2.105
	l0.895-0.313l3.27,1.351l-0.046,0.723l-2.008,2.193l-0.727,0.278L30.364,37.459z M33.24,39.213l-0.045,0.738l-1.77,1.932
	l-0.814,0.313l-3.268-1.536l-0.004-0.567l1.873-2.047l0.777-0.271L33.24,39.213z M33.463,34.018l-0.003-0.61l2.021-2.205
	l0.667-0.235l3.489,1.351l-0.035,0.64l-1.923,2.098l-0.884,0.342L33.463,34.018z M35.1,31.212l-1.87,2.039l-0.836,0.325
	l-2.999-1.242l-0.008-0.69l1.836-2.008l0.785-0.272l3.133,1.211L35.1,31.212z M32.01,33.893l-0.048,0.741l-1.801,1.974l-0.919,0.355
	l-2.935-1.296l-0.002-0.656l1.889-2.063l0.826-0.289L32.01,33.893z M28.909,37.298l-0.047,0.727l-1.714,1.874L26.365,40.2
	l-2.92-1.375l-0.004-0.683l1.661-1.815l0.898-0.315L28.909,37.298z M25.895,40.468l-0.052,0.857l-2.03,2.217l-3.538-1.939
	l1.984-2.169l0.827-0.289L25.895,40.468z M26.204,41.337l0.885-0.311l3.099,1.46l-0.05,0.806l-2.27,2.475l-3.808-2.088
	L26.204,41.337z M30.48,43.322l0.852-0.3l2.946,1.387l-2.964,3.246l-3.196-1.753L30.48,43.322z M31.636,42.68l-0.002-0.616
	l1.818-1.985l0.974-0.343l2.938,1.297l-2.777,3.038L31.636,42.68z M34.69,39.371l-0.004-0.643l2.047-2.235l0.847-0.298l3.051,1.264
	l-2.952,3.233L34.69,39.371z M37.901,35.853v-0.631l1.96-2.142l0.917-0.322l3.066,1.188l-2.896,3.168L37.901,35.853z M41.099,32.411
	l-0.007-0.677l2.176-2.372l3.653,1.217l-2.759,3.018L41.099,32.411z M40.805,31.645L39.96,31.97l-3.359-1.301l-0.003-0.688
	l1.992-2.179l4.393,1.464L40.805,31.645z M36.43,29.759l-1.092,0.421l-2.952-1.143l-0.005-0.665l1.85-2.023l4.074,1.357
	L36.43,29.759z M32.167,28.2l-0.978,0.374l-2.94-1.138l2.171-2.359l3.528,1.176L32.167,28.2z M30.925,28.944l-0.041,0.657
	l-1.747,1.909l-0.899,0.348l-2.94-1.218l2.631-2.857L30.925,28.944z M27.933,32.208l-0.037,0.662l-1.854,2.021l-0.791,0.307
	l-2.948-1.303l2.678-2.909L27.933,32.208z M24.859,35.506l-0.047,0.734l-1.609,1.757l-0.835,0.324l-2.889-1.359l2.507-2.725
	L24.859,35.506z M21.992,38.63l-0.047,0.739l-1.92,2.099l-3.12-1.711l2.261-2.457L21.992,38.63z M14.147,44.452l2.858,1.739
	l-0.184,14.863c-0.001,0.112,0.048,0.22,0.134,0.292c0.068,0.057,0.153,0.088,0.241,0.088c0.022,0,0.046-0.002,0.068-0.007
	l2.488-0.464v3.883c0,0.15,0.067,0.293,0.184,0.388c0.091,0.073,0.202,0.112,0.316,0.112c0.033,0,0.067-0.003,0.101-0.01
	l4.585-0.942l-1.172,2.089l-5.32,1.081v4.694l-3.225,0.734L14.147,44.452z M59.91,106.397L16.414,74.464l34.244-7.795l3.229,1.966
	c0.134,0.081,0.286,0.124,0.443,0.124l0.062-0.009c0.03,0.005,0.065,0.009,0.103,0.009l5.416-1.414V106.397z M82.188,99.414
	l-20.578,7.435V66.899l1.741-0.462l18.837,9.645l0,0V99.414L82.188,99.414z M95.322,94.669V82.808l13.582,6.954L95.322,94.669z
	 M110.184,88.512l-14.861-7.607v-8.243l-10.673,2.78l-18.856-9.653l20.279-5.39v3.452l-3.313,3.373l2.94-0.687
	c0.044,0.57,0.424,0.962,0.866,0.877c0.45-0.087,0.791-0.635,0.76-1.224c-0.001-0.012-0.006-0.02-0.007-0.031l2.94-0.686
	l-3.688-1.589v-3.619l23.654-6.286L110.184,88.512z M63.411,64.661c-0.129,0-0.257,0.032-0.378,0.092l-6.598,1.761l29.523-35.48
	l29.409,19.76L63.411,64.661z M85.422,67.134c0.05,0.049,0.051,0.128,0.003,0.177l-0.618,0.633c-0.025,0.025-0.058,0.038-0.09,0.038
	c-0.031,0-0.063-0.012-0.087-0.036c-0.05-0.048-0.051-0.127-0.003-0.177l0.618-0.633C85.296,67.088,85.375,67.086,85.422,67.134z
	 M88.518,67.134c-0.012,0.06-0.064,0.101-0.123,0.101c-0.008,0-0.016-0.001-0.024-0.002l-0.868-0.171
	c-0.067-0.013-0.111-0.079-0.099-0.146s0.071-0.113,0.147-0.099l0.868,0.171C88.486,67,88.53,67.066,88.518,67.134z M86.018,67.517
	c0.062,0.03,0.088,0.105,0.058,0.167l-0.271,0.563c-0.021,0.045-0.065,0.071-0.112,0.071c-0.019,0-0.037-0.004-0.055-0.013
	c-0.062-0.03-0.088-0.104-0.058-0.167l0.271-0.563C85.881,67.514,85.957,67.489,86.018,67.517z M86.744,67.724v1.391
	c0,0.068-0.056,0.125-0.125,0.125s-0.125-0.057-0.125-0.125v-1.391c0-0.069,0.056-0.125,0.125-0.125S86.744,67.654,86.744,67.724z
	 M87.635,67.615c0.06,0.034,0.08,0.111,0.046,0.171c-0.023,0.04-0.065,0.063-0.108,0.063c-0.021,0-0.043-0.006-0.063-0.017
	l-0.516-0.298c-0.06-0.035-0.08-0.111-0.046-0.171c0.034-0.061,0.111-0.08,0.171-0.046L87.635,67.615z"/>
</svg>
