<?xml version="1.0" encoding="utf-8"?>
<!-- Generator: Adobe Illustrator 17.0.0, SVG Export Plug-In . SVG Version: 6.00 Build 0)  -->
<!DOCTYPE svg PUBLIC "-//W3C//DTD SVG 1.1//EN" "http://www.w3.org/Graphics/SVG/1.1/DTD/svg11.dtd">
<svg version="1.1" id="Capa_1" xmlns="http://www.w3.org/2000/svg" xmlns:xlink="http://www.w3.org/1999/xlink" x="0px" y="0px"
	 width="64px" height="64px" viewBox="0 0 64 64" enable-background="new 0 0 64 64" xml:space="preserve">
<path d="M23.155,39.152c-0.273,0-0.5,0.227-0.5,0.5c0,0.737,0,1.473,0,2.21c-1.745,0.251-3.437,0.888-4.81,2.011
	c-1.181,0.967-3.397,2.873-2.249,4.611c0.71,1.075,2.182,1.296,3.365,1.296c1.853,0.001,3.705,0.002,5.558-0.001
	c1.844-0.003,3.689-0.007,5.533-0.028c1.375-0.016,3.499,0.17,3.844-1.591c0.221-1.13-0.541-2.221-1.2-3.053
	c-0.774-0.976-1.784-1.766-2.893-2.326c-1.087-0.548-2.252-0.821-3.441-0.948c0-0.727,0-1.454,0-2.181c0-0.273-0.227-0.5-0.5-0.5
	c-0.15,0-0.3,0-0.45,0c0-0.508,0-1.017,0-1.525c0.261,0,0.523,0,0.784,0c0.048,0,0.075-0.028,0.109-0.047
	c0.023-0.01,0.048-0.012,0.066-0.028c0.02-0.021,0.022-0.05,0.033-0.077c0.016-0.032,0.042-0.054,0.042-0.098
	c0-0.328,0-0.656,0-0.983c0-0.136-0.114-0.25-0.25-0.25c-1.074,0-2.148,0-3.223,0c-0.136,0-0.25,0.114-0.25,0.25
	c0,0.328,0,0.656,0,0.983c0,0.136,0.114,0.25,0.25,0.25c0.255,0,0.509,0,0.764,0c0,0.508,0,1.017,0,1.525
	C23.543,39.152,23.349,39.152,23.155,39.152z M25.362,41.735c-0.327,0-0.654,0-0.981,0c-0.024,0-0.048-0.001-0.072-0.001
	c-0.002,0-0.003,0.001-0.005,0.001c-0.216,0-0.433,0-0.649,0c0-0.528,0-1.055,0-1.583c0.569,0,1.138,0,1.707,0
	C25.362,40.68,25.362,41.207,25.362,41.735z M30.916,44.704c0.792,0.668,2.597,2.425,1.862,3.598
	c-0.38,0.607-1.698,0.436-2.325,0.445c-3.896,0.056-7.794,0.037-11.691,0.035c-0.662,0-1.313-0.115-1.893-0.453
	c-1.082-0.63-0.349-1.747,0.27-2.445c1.837-2.074,4.407-3.124,7.171-3.149C26.701,42.735,29.029,43.112,30.916,44.704z
	 M23.987,37.127c-0.255,0-0.509,0-0.764,0c0-0.161,0-0.322,0-0.483c0.907,0,1.815,0,2.723,0c0,0.161,0,0.322,0,0.483
	c-0.261,0-0.523,0-0.784,0C24.77,37.127,24.379,37.127,23.987,37.127z M24.237,37.627c0.225,0,0.45,0,0.675,0
	c0,0.508,0,1.017,0,1.525c-0.225,0-0.45,0-0.675,0C24.237,38.644,24.237,38.135,24.237,37.627z M35.209,50
	c-6.217,0-12.435,0-18.652,0c-0.794,0-1.588,0-2.383,0c-0.273,0-0.5,0.227-0.5,0.5c0,0.536,0,1.072,0,1.608
	c0,0.273,0.227,0.5,0.5,0.5c6.217,0,12.435,0,18.652,0c0.794,0,1.588,0,2.383,0c0.137,0,0.239-0.051,0.318-0.123
	c0.011-0.009,0.023-0.016,0.034-0.025c0.01-0.011,0.017-0.023,0.026-0.035c0.071-0.079,0.122-0.18,0.122-0.317
	c0-0.536,0-1.072,0-1.608C35.709,50.227,35.482,50,35.209,50z M16.557,51.608c-0.627,0-1.255,0-1.883,0c0-0.203,0-0.405,0-0.608
	c6.05,0,12.102,0,18.152,0c0.627,0,1.255,0,1.883,0c0,0.203,0,0.405,0,0.608C28.659,51.608,22.607,51.608,16.557,51.608z
	 M57.543,22.86c0-0.273-0.227-0.5-0.5-0.5c-1.829,0-3.658,0-5.487,0c-0.273,0-0.5,0.227-0.5,0.5c0,3.566,0,7.133,0,10.699
	c0,0.273,0.227,0.5,0.5,0.5c1.829,0,3.658,0,5.487,0c0.137,0,0.239-0.051,0.318-0.122c0.012-0.009,0.023-0.016,0.034-0.026
	c0.01-0.011,0.017-0.023,0.026-0.034c0.071-0.079,0.122-0.181,0.122-0.318C57.543,29.993,57.543,26.426,57.543,22.86z
	 M56.543,33.059c-1.496,0-2.991,0-4.487,0c0-3.233,0-6.466,0-9.699c1.496,0,2.991,0,4.487,0
	C56.543,26.593,56.543,29.826,56.543,33.059z M49.862,25.126C49.862,25.126,49.862,25.126,49.862,25.126
	C49.862,25.125,49.862,25.125,49.862,25.126c0.007-0.62-0.178-1.276-0.522-1.788c-0.617-0.918-1.622-0.986-2.63-0.966
	c-2.473,0.049-4.949,0.228-7.41,0.479c-1.192,0.121-2.384,0.266-3.563,0.478c-0.918,0.165-1.771,0.458-2.654,0.748
	c-2.54,0.834-5.123,1.543-7.707,2.225c-2.474,0.653-4.96,1.27-7.461,1.814c-0.781,0.17-1.565,0.336-2.356,0.458
	c-0.934,0.144-2.139,0.237-2.856,1.043c-0.504,0.565-0.55,1.522-0.101,2.137c0.801,1.099,2.649,1.029,3.839,0.96
	c2.788-0.161,5.586-0.488,8.337-0.966c1.114-0.193,2.189-0.541,3.313-0.666c1.548-0.173,3.109-0.249,4.665-0.326
	c0.81-0.04,1.621-0.055,2.431-0.087c-0.228,0.056-0.455,0.119-0.683,0.174c-1.136,0.276-2.276,0.547-3.425,0.763
	c-1.104,0.208-2.912,0.413-3.23,1.742c-0.243,1.017,0.73,1.896,1.645,2.061c1.119,0.201,2.232,0.292,3.365,0.218
	c1.99-0.13,3.978-0.293,5.965-0.449c1.485-0.117,2.912-0.248,4.378-0.544c1.365-0.275,2.711-0.634,4.053-1.001
	c0.995-0.272,1.873-0.541,2.352-1.539c0.45-0.938,0.293-2.077,0.285-3.08C49.882,27.718,49.872,26.422,49.862,25.126z
	 M48.892,31.039c-0.126,1.234-1.203,1.438-2.207,1.712c-2.242,0.612-4.491,1.158-6.81,1.342c-2.022,0.16-4.044,0.32-6.067,0.466
	c-1.421,0.103-2.752,0.117-4.172-0.138c-0.629-0.113-1.143-0.817-0.48-1.248c0.792-0.515,1.98-0.555,2.89-0.744
	c2.524-0.523,5.026-1.18,7.516-1.846c0.213-0.032,0.425-0.08,0.627-0.109c0.644-0.093,1.289-0.187,1.933-0.28
	c0.318-0.046,0.182-0.528-0.133-0.482c-0.53,0.077-1.061,0.154-1.591,0.23c-0.035,0.005-0.069,0.01-0.104,0.015
	c-0.005-0.055-0.018-0.107-0.038-0.157c0.154-0.054,0.31-0.1,0.459-0.176c0.311-0.157,0.682-0.451,0.775-0.808
	c0.082-0.312-0.4-0.444-0.481-0.132c-0.13,0.503-0.888,0.715-1.505,0.826c-3.239,0.078-6.482,0.187-9.714,0.421
	c-0.835,0.061-1.671,0.133-2.5,0.252c-0.667,0.096-1.308,0.313-1.969,0.448c-2.717,0.556-5.512,0.843-8.276,1.043
	c-0.648,0.047-1.301,0.1-1.951,0.064c-0.53-0.03-1.588-0.159-1.764-0.771c-0.304-1.056,1.325-1.281,2.014-1.365
	c1.764-0.214,3.508-0.66,5.235-1.068c2.688-0.635,5.362-1.328,8.022-2.071c1.274-0.356,2.544-0.727,3.806-1.121
	c0.938-0.293,1.861-0.665,2.819-0.89c2.825-0.665,5.823-0.798,8.711-0.965c1.198-0.069,2.412-0.155,3.613-0.118
	c0.902,0.027,1.321,0.967,1.312,1.756c0.012,1.549,0.024,3.099,0.036,4.648C48.901,30.192,48.935,30.621,48.892,31.039z"/>
</svg>
