<?xml version="1.0" encoding="utf-8"?>
<!-- Generator: Adobe Illustrator 16.0.0, SVG Export Plug-In . SVG Version: 6.00 Build 0)  -->
<!DOCTYPE svg PUBLIC "-//W3C//DTD SVG 1.1//EN" "http://www.w3.org/Graphics/SVG/1.1/DTD/svg11.dtd">
<svg version="1.1" id="Layer_1" xmlns="http://www.w3.org/2000/svg" xmlns:xlink="http://www.w3.org/1999/xlink" x="0px" y="0px"
	  viewBox="0 0 96 96" enable-background="new 0 0 96 96" xml:space="preserve">
<g>
	<rect x="21.333" y="16.896" width="37.334" height="5.521"/>
	<rect x="21.333" y="31.896" width="37.334" height="5.521"/>
	<path d="M62.054,78.969c0.247,0.509,0.371,1.086,0.401,1.648c0.051,0.949-0.382,0.703-1.036,0.373
		c-0.601-0.304-1.267-0.387-1.917-0.531c-0.621-0.138-0.878-0.562-1.208-1.082c-0.45-0.707-1.339-0.632-1.802,0
		c-0.341,0.465-0.747,1.336-1.31,1.704c0.148-1.074,0.228-2.163,0.35-3.231c1.176-0.489,2.229-1.482,2.851-2.445
		c1.067-1.652,0.887-4.042-0.325-5.565c-1.34-1.685-2.904,0.434-3.365,1.602c-0.603,1.527-0.87,3.021-1.042,4.514
		c-0.057-0.022-0.113-0.048-0.168-0.079c-1.095-0.621-1.415-2.543-1.618-3.652c-0.243-1.322-2.253-0.762-2.012,0.554
		c0.341,1.854,1.014,4.013,2.76,5.003c0.271,0.153,0.55,0.258,0.831,0.317c-0.063,0.677-0.127,1.354-0.217,2.039
		c-0.264-0.351-0.514-0.701-0.754-0.91c-1.461-1.272-3.421-0.548-4.458,0.866c-1.548,2.113-0.262,6.607,2.511,7.035
		c1.874,0.29,3.23-1.338,3.874-2.906c0.115-0.281,0.215-0.566,0.303-0.854c0.417,0.011,0.835-0.074,1.218-0.281
		c0.641-0.346,1.104-0.872,1.522-1.442c0.363,0.345,0.788,0.616,1.328,0.78c0.517,0.16,1.098,0.156,1.596,0.367
		c0.575,0.244,1.117,0.666,1.771,0.667c2.979,0.008,2.609-3.702,1.718-5.54C63.269,76.706,61.471,77.765,62.054,78.969z
		 M56.449,72.766c0.093-0.331,0.201-0.661,0.344-0.975c0.039,0.129,0.072,0.259,0.105,0.388c0.119,0.457,0.137,0.869,0.037,1.335
		c-0.111,0.525-0.504,1.169-1.021,1.677C56.055,74.374,56.225,73.563,56.449,72.766z M50.37,84.772
		c-0.853-0.8-1.107-2.256-0.732-3.329c0.128-0.37,0.809-0.994,1.236-0.803c0.771,0.34,1.251,1.371,1.89,1.946
		C52.509,83.559,51.529,85.861,50.37,84.772z"/>
	<path d="M34.165,78.159l-1.099-1.098c-0.015-0.104-0.031-0.21-0.05-0.313l0.705-1.383l-1.38-0.704
		c-0.047-0.097-0.096-0.191-0.147-0.286l0.244-1.532l-1.536-0.241c-0.073-0.075-0.146-0.149-0.222-0.222l-0.243-1.537l-1.531,0.244
		c-0.095-0.05-0.189-0.101-0.286-0.147l-0.703-1.38l-1.385,0.706c-0.103-0.019-0.206-0.037-0.312-0.05l-1.099-1.099l-1.099,1.099
		c-0.104,0.013-0.207,0.031-0.312,0.05l-1.384-0.705l-0.703,1.379c-0.097,0.047-0.191,0.098-0.286,0.147l-1.531-0.244l-0.244,1.536
		c-0.074,0.073-0.148,0.147-0.221,0.222l-1.535,0.242l0.242,1.532c-0.051,0.095-0.1,0.189-0.146,0.286l-1.381,0.704l0.705,1.383
		c-0.018,0.104-0.034,0.207-0.049,0.313l-1.099,1.098l1.099,1.098c0.015,0.104,0.031,0.209,0.049,0.313l-0.705,1.382l1.381,0.704
		c0.047,0.097,0.096,0.192,0.146,0.286l-0.243,1.531l1.536,0.244c0.072,0.073,0.146,0.148,0.221,0.221l0.244,1.535l1.531-0.243
		c0.094,0.051,0.188,0.102,0.286,0.147l0.703,1.38l1.384-0.705c0.104,0.018,0.207,0.036,0.312,0.05l1.099,1.099l1.099-1.099
		c0.104-0.014,0.208-0.032,0.312-0.048l1.385,0.703l0.702-1.38c0.097-0.046,0.191-0.096,0.287-0.147l1.531,0.243l0.242-1.535
		c0.076-0.072,0.149-0.146,0.222-0.221l1.536-0.244l-0.243-1.531c0.052-0.094,0.1-0.189,0.147-0.286l1.38-0.704l-0.705-1.382
		c0.019-0.104,0.035-0.207,0.049-0.313L34.165,78.159z M25.122,83.156c-2.76,0-4.998-2.237-4.998-4.997
		c0-2.761,2.238-4.997,4.998-4.997s4.998,2.236,4.998,4.997C30.12,80.919,27.882,83.156,25.122,83.156z"/>
	<path d="M88.874,37.738l-6.137-6.138c-1.07-1.069-2.965-1.069-4.034,0l-5.476,5.438V1.969H6.29v92.063h66.938V57.455l15.647-15.684
		C89.988,40.658,89.988,38.851,88.874,37.738z M68.663,89.467h-57.81V6.533h57.81v35.07l-9.996,10v-4.707H21.333v5.521h36.52
		l-3.619,3.62c-0.235,0.235-0.404,0.52-0.541,0.821l-2.786,9.162c-0.299,1.004-0.023,2.091,0.717,2.83
		c0.543,0.543,1.271,0.836,2.017,0.836c0.272,0,0.546-0.039,0.813-0.118l8.78-2.611c0.454-0.137,0.867-0.383,1.203-0.717
		l4.227-4.225V89.467z M62.399,64.201l-8.779,2.613l2.61-8.78l19.701-19.707l6.179,6.177L62.399,64.201z M83.174,43.398
		l-6.137-6.139l3.663-3.664l6.137,6.138L83.174,43.398z"/>
</g>
</svg>
