<?xml version="1.0" encoding="iso-8859-1"?>
<!-- Generator: Adobe Illustrator 17.1.0, SVG Export Plug-In . SVG Version: 6.00 Build 0)  -->
<!DOCTYPE svg PUBLIC "-//W3C//DTD SVG 1.1//EN" "http://www.w3.org/Graphics/SVG/1.1/DTD/svg11.dtd">
<svg version="1.1" id="Capa_1" xmlns="http://www.w3.org/2000/svg" xmlns:xlink="http://www.w3.org/1999/xlink" x="0px" y="0px"
	 viewBox="0 0 64 64" style="enable-background:new 0 0 64 64;" xml:space="preserve">
<g>
	<path d="M7.339,18.14c0.003-1.064,0.866-1.927,1.931-1.927c0.788,0,1.463,0.474,1.765,1.149c0.301-0.676,0.976-1.149,1.764-1.149
		c0.787,0,1.462,0.474,1.764,1.149c0.301-0.676,0.977-1.149,1.764-1.149s1.463,0.474,1.765,1.149
		c0.301-0.676,0.976-1.149,1.763-1.149c0.788,0,1.463,0.474,1.765,1.149c0.301-0.676,0.977-1.149,1.763-1.149
		c0.788,0,1.464,0.474,1.765,1.149c0.301-0.676,0.977-1.149,1.765-1.149c0.787,0,1.462,0.474,1.763,1.149
		c0.303-0.676,0.977-1.149,1.765-1.149c0.788,0,1.463,0.474,1.764,1.149c0.302-0.676,0.977-1.149,1.764-1.149
		c0.788,0,1.463,0.474,1.764,1.149c0.302-0.676,0.977-1.149,1.765-1.149c0.787,0,1.462,0.474,1.763,1.149
		c0.302-0.676,0.977-1.149,1.765-1.149c0.787,0,1.462,0.474,1.765,1.149c0.301-0.676,0.976-1.149,1.763-1.149
		c0.788,0,1.463,0.474,1.765,1.149c0.301-0.676,0.976-1.149,1.763-1.149c0.788,0,1.463,0.474,1.765,1.149
		c0.301-0.676,0.975-1.149,1.764-1.149c1.066,0,1.933,0.865,1.933,1.933h0.608c1.671,0,2.528-1.261,1.917-2.814l-0.81-2.059
		c-0.61-1.553-2.46-2.812-4.13-2.812H10.425c-1.671,0-3.521,1.26-4.131,2.812l-0.81,2.059C4.882,16.864,5.711,18.106,7.339,18.14z"
		/>
	<rect x="17.084" y="23.163" width="2.268" height="6.488"/>
	<rect x="13.556" y="23.163" width="2.519" height="6.488"/>
	<rect x="13.599" y="42.061" width="2.52" height="6.488"/>
	<rect x="17.127" y="42.061" width="2.267" height="6.488"/>
	<rect x="42.009" y="23.163" width="2.52" height="6.488"/>
	<rect x="45.537" y="23.163" width="2.268" height="6.488"/>
	<path d="M7.204,50.398c0,1.67,1.354,3.025,3.023,3.025h13.776c1.67,0,3.024-1.355,3.024-3.025v-6.552
		c0-1.67,1.352-3.023,3.023-3.023h1.68c1.671,0,3.024,1.354,3.024,3.023v6.552c0,1.67,1.354,3.025,3.023,3.025h2.971
		c-1.3-1.977-2.062-4.34-2.062-6.883c0-6.93,5.617-12.547,12.547-12.547c0.977,0,1.926,0.123,2.839,0.335V20.07
		c-0.021,0-0.041,0.007-0.063,0.007h-0.607c-0.279,0-0.504-0.227-0.504-0.504c0-0.788-0.642-1.428-1.429-1.428
		c-0.562,0-1.074,0.333-1.304,0.85c-0.161,0.365-0.76,0.364-0.921,0c-0.229-0.517-0.739-0.85-1.304-0.85
		c-0.562,0-1.073,0.333-1.303,0.85c-0.161,0.365-0.76,0.364-0.921,0c-0.229-0.517-0.74-0.85-1.304-0.85
		c-0.562,0-1.073,0.333-1.303,0.85c-0.162,0.365-0.76,0.364-0.922,0c-0.229-0.517-0.74-0.85-1.303-0.85s-1.074,0.333-1.304,0.85
		c-0.161,0.365-0.76,0.364-0.921,0c-0.229-0.517-0.74-0.85-1.303-0.85c-0.564,0-1.074,0.333-1.304,0.85
		c-0.161,0.365-0.76,0.364-0.921,0c-0.229-0.517-0.741-0.85-1.304-0.85c-0.563,0-1.073,0.333-1.303,0.85
		c-0.162,0.365-0.76,0.364-0.921,0c-0.229-0.517-0.741-0.85-1.304-0.85c-0.563,0-1.073,0.333-1.303,0.85
		c-0.162,0.365-0.761,0.364-0.923,0c-0.229-0.517-0.739-0.85-1.303-0.85c-0.562,0-1.074,0.333-1.304,0.85
		c-0.16,0.365-0.76,0.364-0.921,0c-0.229-0.517-0.739-0.85-1.304-0.85c-0.562,0-1.073,0.333-1.303,0.85
		c-0.161,0.365-0.76,0.364-0.921,0c-0.229-0.517-0.74-0.85-1.304-0.85c-0.562,0-1.073,0.333-1.303,0.85
		c-0.162,0.365-0.76,0.364-0.922,0c-0.229-0.517-0.739-0.85-1.303-0.85c-0.562,0-1.074,0.333-1.304,0.85
		c-0.161,0.365-0.759,0.364-0.921,0c-0.229-0.517-0.739-0.85-1.303-0.85c-0.562,0-1.074,0.333-1.304,0.85
		c-0.161,0.365-0.76,0.364-0.921,0c-0.23-0.517-0.741-0.85-1.304-0.85c-0.784,0-1.425,0.638-1.427,1.422
		c0,0.137-0.056,0.266-0.151,0.359c-0.096,0.093-0.229,0.135-0.354,0.143v3.387H4.932v-0.124c-0.269-0.214-0.452-0.529-0.452-0.899
		c0-0.043,0.021-0.08,0.024-0.123c-0.196-0.16-0.438-0.271-0.713-0.271H2.936c-0.274,0-0.516,0.109-0.712,0.271
		c0.004,0.043,0.024,0.079,0.024,0.123c0,0.371-0.184,0.687-0.453,0.9v13.163c0.248,0.214,0.414,0.521,0.414,0.874
		c0,0.111-0.034,0.213-0.063,0.315c0.205,0.198,0.482,0.322,0.79,0.322h0.855c0.278,0,0.524-0.111,0.722-0.277
		c-0.037-0.114-0.072-0.232-0.072-0.359c0-0.387,0.201-0.714,0.491-0.926V24.456h2.271V50.398z M40.968,21.841h7.729v9.07h-7.729
		V21.841z M27.028,35.28v-4.116h2.088v4.116H27.028z M30.125,31.164h1.574v4.116h-1.574V31.164z M34.754,35.28h-2.048v-4.116h2.048
		V35.28z M27.028,21.841h7.727v8.315h-7.727V21.841z M12.58,21.841h7.727v9.07H12.58V21.841z M12.58,40.823h7.727v9.071H12.58
		V40.823z"/>
	<path d="M50.663,35.962c-5.654,0-10.236,4.582-10.236,10.236s4.582,10.236,10.236,10.236s10.236-4.582,10.236-10.236
		S56.317,35.962,50.663,35.962z M53.681,42.237c-0.94,0.137-2.011,0.563-2.514,1.727c0,0,2.844,5.721,2.939,9.559h-4.282
		c0,0,2.303-5.566-1.151-8.349c0,0-1.23,0.466-2.558,2.646c-0.497,0.815-1.143,0.809-1.187-0.143c-0.043-1.019,0.2-2.415,1.345-3.94
		c0,0-0.744-0.224-1.56-0.138c-0.865,0.092-1.405-0.212-0.873-1.004c0.542-0.808,1.627-1.518,3.794-1.025
		c0,0,0.506-2.269,2.358-2.661c0.933-0.197,1.203,0.546,0.762,1.193c-0.252,0.369-0.479,0.813-0.567,1.289
		c0,0,1.7-1.335,3.849-0.189C54.878,41.647,54.625,42.099,53.681,42.237z"/>
</g>
</svg>
